<?xml version="1.0" encoding="UTF-8"?>
<svg version="1.1" xmlns="http://www.w3.org/2000/svg" width="1024" height="1024">
<path d="M0 0 C337.92 0 675.84 0 1024 0 C1024 337.92 1024 675.84 1024 1024 C686.08 1024 348.16 1024 0 1024 C0 686.08 0 348.16 0 0 Z " fill="#D71B18" transform="translate(0,0)"/>
<path d="M0 0 C337.92 0 675.84 0 1024 0 C1024 337.92 1024 675.84 1024 1024 C686.08 1024 348.16 1024 0 1024 C0 686.08 0 348.16 0 0 Z M331 128 C330.19095215 128.3604541 329.3819043 128.7209082 328.54833984 129.09228516 C289.10994588 146.70186913 253.44035301 172.08541396 221.8515625 201.3671875 C219.15476721 203.85710534 216.42758788 206.30792772 213.6875 208.75 C207.7364642 214.10212964 202.21758688 219.65488222 197 225.72265625 C195.08987984 227.89765635 193.12650434 230.01478708 191.14770508 232.12719727 C185.18318233 238.51887361 179.71381069 245.19992655 174.41357422 252.14941406 C172.98405358 254.02087632 171.54116086 255.88149897 170.09765625 257.7421875 C118.31773792 325.04155321 85.42140883 413.22070751 84.76171875 498.46484375 C84.75187958 499.52390427 84.74204041 500.58296478 84.73190308 501.67411804 C84.381007 549.34663337 89.52149163 594.43072913 104 640 C104.34788574 641.09602539 104.69577148 642.19205078 105.05419922 643.32128906 C111.93110266 664.66644199 120.66483601 685.24849616 131.03173828 705.1328125 C132.02564047 707.04944486 132.99588167 708.97690495 133.96484375 710.90625 C146.00893867 734.59458845 161.14716109 756.49750171 178 777 C179.01900391 778.27810547 179.01900391 778.27810547 180.05859375 779.58203125 C184.73668501 785.41088293 189.63482631 790.96623274 194.75097656 796.40942383 C197.18253674 799.00082598 199.51298553 801.61160811 201.734375 804.38671875 C202.48203125 805.24910156 203.2296875 806.11148438 204 807 C204.66 807 205.32 807 206 807 C206.268125 807.639375 206.53625 808.27875 206.8125 808.9375 C207.88667752 811.33131686 207.88667752 811.33131686 211 812 C211 812.66 211 813.32 211 814 C212.5507907 815.56864082 212.5507907 815.56864082 214.5625 817.1875 C217.27482613 819.48728702 219.84966643 821.81054465 222.3125 824.375 C226.39081026 828.50829871 230.86831074 832.09865647 235.40185547 835.71826172 C237.07964695 837.06387817 238.74537335 838.4234864 240.41015625 839.78515625 C277.35112595 869.87089369 319.17519685 893.78396827 364 910 C365.53333984 910.5583252 365.53333984 910.5583252 367.09765625 911.12792969 C385.74111315 917.83614286 404.67020045 922.76755014 424 927 C424.99821777 927.22026855 425.99643555 927.44053711 427.02490234 927.66748047 C462.35221965 935.22259164 499.03621904 935.98660095 535 935 C535.71373779 934.98066406 536.42747559 934.96132813 537.1628418 934.94140625 C624.73019039 932.37501674 716.27360445 896.62833569 783 840 C784.04367369 839.1294919 785.08797553 838.25973651 786.1328125 837.390625 C797.71877029 827.72185505 808.62788447 817.46318562 819.3125 806.8125 C820.02682693 806.10219131 820.02682693 806.10219131 820.75558472 805.37753296 C826.39556845 799.76161588 831.84537624 794.06421362 837 788 C837.845625 787.03578125 838.69125 786.0715625 839.5625 785.078125 C853.10134499 769.36959331 865.00818264 752.56860715 876 735 C876.40911621 734.35289062 876.81823242 733.70578125 877.23974609 733.0390625 C884.55651054 721.42693059 890.80765493 709.23893748 897 697 C897.40750488 696.20110352 897.81500977 695.40220703 898.23486328 694.57910156 C926.01287923 639.7344145 939.26415278 576.8744407 939.1875 515.625 C939.18722809 514.79917419 939.18695618 513.97334839 939.18667603 513.12249756 C939.16494637 498.67071133 938.52592399 484.37807255 937 470 C936.90348145 469.03626465 936.80696289 468.0725293 936.70751953 467.07958984 C932.10148161 421.97974727 919.75824726 378.2407949 901 337 C900.61908203 336.15453613 900.23816406 335.30907227 899.84570312 334.43798828 C884.68487077 300.98199177 864.64990146 270.07678015 841 242 C840.57315918 241.48824219 840.14631836 240.97648438 839.70654297 240.44921875 C827.39751688 225.70829148 814.32645155 211.79350231 800 199 C799.11699219 198.19046875 798.23398437 197.3809375 797.32421875 196.546875 C791.73958566 191.43993214 785.96824832 186.65069643 780 182 C778.55367187 180.86111328 778.55367187 180.86111328 777.078125 179.69921875 C727.50397009 141.03877705 670.33817985 113.9037303 609 100 C608.04625488 99.77860352 607.09250977 99.55720703 606.10986328 99.32910156 C518.62423569 79.17766832 425.39538893 87.79088738 331 128 Z " fill="#000000" transform="translate(0,0)"/>
<path d="M0 0 C4.47213604 0.01135008 8.94403282 0.00462778 13.41616058 -0.00686932 C43.66611009 -0.07295943 73.77588088 0.82084093 103.82299805 4.57324219 C105.64622068 4.79435072 107.4694634 5.01529374 109.29272461 5.23608398 C114.59784251 5.88572068 119.89867783 6.56550907 125.19799805 7.26074219 C125.95681274 7.36 126.71562744 7.45925781 127.49743652 7.56152344 C202.18072224 17.40237929 274.56481852 38.50416573 341.36206055 73.48339844 C341.97459183 73.79915329 342.58712311 74.11490814 343.21821594 74.44023132 C354.17779691 80.24649748 359.74078926 89.04151877 364.0065918 100.41699219 C367.27287857 111.40973665 365.12620811 123.03648756 359.88549805 133.01074219 C355.00351939 141.11367125 349.68210896 145.96663697 341.19799805 150.26074219 C340.5225293 150.60363281 339.84706055 150.94652344 339.15112305 151.29980469 C330.21327392 155.00658708 318.51097647 154.9945038 309.57202148 151.36083984 C306.86414752 150.13248951 304.20607568 148.82354067 301.55981445 147.46777344 C296.87283296 145.07244198 292.12495534 142.79997011 287.38549805 140.51074219 C285.79185425 139.73899658 285.79185425 139.73899658 284.16601562 138.95166016 C204.96398392 100.9568476 112.04069318 80.58174367 19.9753418 80.05761719 C18.47201509 80.05054873 16.96868868 80.04341609 15.46536255 80.03622437 C10.68873597 80.01671446 5.91216075 80.01153211 1.13549805 80.01074219 C0.32013958 80.01044762 -0.49521889 80.01015305 -1.33528519 80.00984955 C-26.59298782 80.00837621 -51.69227483 80.23878378 -76.80200195 83.26074219 C-77.61626648 83.35784485 -78.43053101 83.45494751 -79.26947021 83.55499268 C-112.10027853 87.51542244 -144.87576802 93.07924857 -176.92700195 101.26074219 C-201.84305857 107.56163124 -201.84305857 107.56163124 -212.7902832 101.57714844 C-213.45415039 101.14273438 -214.11801758 100.70832031 -214.80200195 100.26074219 C-215.55868164 99.77476562 -216.31536133 99.28878906 -217.0949707 98.78808594 C-227.09695269 91.70125448 -232.48481732 82.21468881 -234.80200195 70.26074219 C-236.04859148 59.66473124 -234.39314725 50.67766852 -228.12231445 41.91308594 C-226.43622457 39.90851241 -224.6931247 38.07166107 -222.80200195 36.26074219 C-222.30700195 35.77992188 -221.81200195 35.29910156 -221.30200195 34.80371094 C-213.01704284 27.35175043 -202.19909358 25.15880841 -191.73950195 22.38574219 C-190.91944672 22.16664185 -190.09939148 21.9475415 -189.25448608 21.72180176 C-149.8103912 11.22730424 -108.99873402 5.38571976 -68.3097229 2.44885254 C-66.4896311 2.31232295 -64.67017452 2.16723968 -62.85116577 2.01696777 C-41.88308171 0.2869531 -21.03017543 -0.05384661 0 0 Z " fill="#000000" transform="translate(451.802001953125,309.7392578125)"/>
<path d="M0 0 C1.80593304 0.13487388 3.61191824 0.26905213 5.41796875 0.40234375 C34.3797587 2.69221458 62.80940978 8.16027005 91 15 C91.98906342 15.23816437 91.98906342 15.23816437 92.99810791 15.48114014 C144.9956432 28.02729988 195.37682484 48.48488107 240.90625 76.6015625 C241.78603516 77.14377441 242.66582031 77.68598633 243.57226562 78.24462891 C250.42596568 83.20019039 254.32209136 90.35612548 256.6875 98.3125 C257.88373575 108.60012746 256.27353717 116.53546154 250.4609375 125.328125 C244.63238716 132.56547186 236.8953495 137.32881584 227.671875 138.37890625 C216.96282575 138.88022628 210.19596172 136.42736075 201 131.12890625 C197.73346016 129.28509763 194.36599639 127.65282369 191 126 C189.65693615 125.33196606 188.31448661 124.66269562 186.97265625 123.9921875 C185.98096436 123.4967041 185.98096436 123.4967041 184.96923828 122.99121094 C183.05590836 122.02814132 181.15018733 121.05149596 179.24609375 120.0703125 C159.1495824 109.76347634 138.25540022 101.57743375 117 94 C116.11731445 93.6793457 115.23462891 93.35869141 114.32519531 93.02832031 C84.19711153 82.1213117 52.23944817 75.20236274 20.625 70.375 C19.38097412 70.18067383 18.13694824 69.98634766 16.85522461 69.78613281 C-10.22970906 65.83320562 -37.32507072 64.43850704 -64.66625214 64.55316925 C-67.04762511 64.56269041 -69.42897595 64.56750362 -71.81036377 64.57171631 C-96.70705544 64.63107123 -121.32624849 65.41117618 -146 69 C-146.75921753 69.10890564 -147.51843506 69.21781128 -148.30065918 69.33001709 C-168.46019421 72.24609951 -188.25078831 76.44199027 -208.03027344 81.27661133 C-220.07773873 84.21122492 -231.13311907 86.31127643 -242.34765625 79.59375 C-250.10329655 74.10394785 -255.25720788 66.41107745 -257 57 C-257.71617168 48.26270546 -255.63772669 39.85669463 -250 33 C-240.51820016 23.19495699 -228.56790788 20.51802689 -215.75 17.1875 C-214.9181015 16.97034332 -214.086203 16.75318665 -213.22909546 16.52944946 C-143.95440091 -1.44582809 -71.21944075 -5.96472288 0 0 Z " fill="#000000" transform="translate(504,458)"/>
<path d="M0 0 C5.60173838 5.55930097 8.61856157 12.05846953 9.375 19.875 C8.94385776 28.34860329 6.28237005 34.94661934 0.375 41.08203125 C-4.64508154 45.13607737 -10.70095293 47.10478043 -17.125 47.4375 C-26.34438291 46.39660193 -33.82162497 42.10269276 -41.8125 37.625 C-86.86795297 12.95200532 -134.83986382 -3.38606152 -185.6875 -10.75 C-186.37683624 -10.85114105 -187.06617249 -10.9522821 -187.77639771 -11.05648804 C-209.42956799 -14.19287949 -230.98089284 -15.33322405 -252.85229492 -15.26074219 C-256.66666735 -15.25005835 -260.4805639 -15.26069111 -264.29492188 -15.2734375 C-304.21341395 -15.29667779 -342.44817199 -10.03803501 -381.4296875 -2.0234375 C-382.27747772 -1.84957016 -383.12526794 -1.67570282 -383.99874878 -1.49656677 C-387.81861137 -0.7025649 -391.61313363 0.13769175 -395.39355469 1.10327148 C-404.00802027 3.24522464 -412.06749512 3.03222684 -419.84375 -1.44921875 C-425.13768448 -5.25663177 -429.56745566 -10.51211323 -431 -17 C-431.83283924 -24.93767774 -431.67921602 -32.28919159 -427 -39 C-420.70324492 -45.99335922 -413.35620002 -48.85632904 -404.390625 -51.0859375 C-403.67497879 -51.26801254 -402.95933258 -51.45008759 -402.22200012 -51.63768005 C-399.8999015 -52.22470926 -397.57538612 -52.80113996 -395.25 -53.375 C-394.44899872 -53.5738681 -393.64799744 -53.77273621 -392.82272339 -53.97763062 C-361.00016346 -61.85065392 -328.70560036 -66.77145278 -296 -69 C-294.51822529 -69.11323055 -293.0364542 -69.22650844 -291.5546875 -69.33984375 C-196.71370172 -75.99838572 -76.94908548 -60.00196547 0 0 Z " fill="#010000" transform="translate(695,661)"/>
<path d="M0 0 C11.22 0 22.44 0 34 0 C34 0.33 34 0.66 34 1 C27.565 1.495 27.565 1.495 21 2 C21 2.33 21 2.66 21 3 C12.09 3 3.18 3 -6 3 C-6 2.67 -6 2.34 -6 2 C-4.02 1.67 -2.04 1.34 0 1 C0 0.67 0 0.34 0 0 Z " fill="#C91915" transform="translate(496,89)"/>
</svg>
