<?xml version="1.0" encoding="UTF-8"?>
<svg version="1.1" xmlns="http://www.w3.org/2000/svg" width="1024" height="1024">
<path d="M0 0 C0.81036713 -0.00100708 1.62073425 -0.00201416 2.45565796 -0.00305176 C36.50954424 0.02503835 70.91856123 2.26531223 103.875 11.25 C105.83224695 11.73358507 107.79053944 12.21296397 109.75 12.6875 C149.90013631 22.75223607 149.90013631 22.75223607 165.75 31.3125 C169.20651392 33.11558871 172.66548121 34.03270739 176.4375 35 C182.04806932 36.52079147 186.94370922 38.56367003 192.0625 41.3125 C192.69808838 41.65313477 193.33367676 41.99376953 193.98852539 42.34472656 C196.35936594 43.66246611 198.51540105 44.87476632 200.40234375 46.84375 C203.38710501 49.6939199 207.81591421 50.5363184 211.6484375 51.87109375 C214.95100585 53.28248192 217.1629225 54.92471208 219.875 57.25 C224.10414638 60.10260069 228.52489237 62.64803145 232.96484375 65.15625 C236.97540524 67.45268603 240.92218728 69.856043 244.875 72.25 C245.62652344 72.69730469 246.37804687 73.14460938 247.15234375 73.60546875 C250.88181905 75.86259998 253.83002845 78.1035294 256.875 81.25 C257.865 81.91 258.855 82.57 259.875 83.25 C262.875 85.25 262.875 85.25 264.6640625 87.09375 C267.3030459 89.66745819 270.22014587 91.67589994 273.25 93.75 C280.29626801 98.67203231 286.77772056 104.12106213 293.22021484 109.80029297 C295.57049784 111.85930454 297.94996549 113.88360891 300.33032227 115.90771484 C304.68805258 119.69447022 308.41492505 123.98999978 312.1875 128.33984375 C314.77113289 131.26437265 317.52631571 133.99889493 320.38671875 136.65234375 C326.99132366 142.94904168 332.27851714 150.36347437 337.671875 157.69140625 C339.75564953 160.52168763 341.72553233 163.10446569 344.25 165.5625 C348.31973438 169.72913282 351.52428106 174.49783968 354.875 179.25 C355.51179687 180.14976562 356.14859375 181.04953125 356.8046875 181.9765625 C359.89062178 186.36044339 362.9434088 190.76100098 365.875 195.25 C366.39835938 196.04921875 366.92171875 196.8484375 367.4609375 197.671875 C371.58467717 204.04656427 375.30311385 210.5539041 378.875 217.25 C379.87410339 219.06299439 380.87410669 220.87549315 381.875 222.6875 C386.34428483 230.90068836 390.53940123 239.12421796 393.890625 247.859375 C394.85897551 250.21108339 395.98235324 252.38687031 397.1875 254.625 C402.10441008 264.20003542 405.0775297 274.8067715 408.4453125 285.00390625 C409.57905682 288.4174544 410.83306548 291.76778986 412.125 295.125 C417.58414288 310.39068829 422.06101466 326.54078955 423.48828125 342.72265625 C423.88806439 346.3691631 424.58182711 349.86578602 425.32446289 353.4543457 C426.36020405 358.71388984 427.14052464 364.01246234 427.9375 369.3125 C428.11087891 370.41271484 428.28425781 371.51292969 428.46289062 372.64648438 C430.96541168 389.28201703 431.03715605 405.88648159 431.00537109 422.67504883 C430.99993774 426.10176878 431.00538696 429.52836177 431.01171875 432.95507812 C431.01105912 435.14322945 431.00978036 437.33138071 431.0078125 439.51953125 C431.00983673 440.53924515 431.01186096 441.55895905 431.01394653 442.60957336 C431.01079437 443.55543808 431.00764221 444.5013028 431.00439453 445.47583008 C431.00320114 446.71796013 431.00320114 446.71796013 431.00198364 447.98518372 C430.87737374 450.20766325 430.4530339 452.10756988 429.875 454.25 C429.67721459 456.35146998 429.51359847 458.4562983 429.375 460.5625 C428.91651892 467.48065206 427.93808203 474.1568659 426.5 480.9375 C425.252578 486.95308373 424.30002802 492.98079731 423.4375 499.0625 C422.46472815 505.80130901 421.31925873 512.47037969 419.875 519.125 C419.7210376 519.85565674 419.5670752 520.58631348 419.40844727 521.33911133 C418.42890342 525.68739227 416.92743338 529.31139181 414.875 533.25 C414.75125 534.260625 414.6275 535.27125 414.5 536.3125 C413.72606531 541.18828856 411.95890728 545.35142063 410.1328125 549.921875 C409.02410041 552.85548588 408.14715737 555.71462273 407.375 558.75 C405.47406415 566.13649359 403.12505685 573.87491472 398.875 580.25 C398.215 580.25 397.555 580.25 396.875 580.25 C396.936875 581.136875 396.99875 582.02375 397.0625 582.9375 C396.84684446 586.74741445 395.8277575 588.02589218 393.875 591.25 C392.88042745 593.70110503 391.92570718 596.14882599 391 598.625 C388.88154998 604.13110942 386.50870179 608.6069366 382.875 613.25 C382.18822927 614.9084837 381.52335679 616.57612554 380.875 618.25 C379.06790802 621.9015071 377.1217863 625.47705171 375.1875 629.0625 C374.43049805 630.50206055 374.43049805 630.50206055 373.65820312 631.97070312 C370.71277776 637.42588411 367.58453975 641.98362012 363.37670898 646.53198242 C361.49942958 648.67966819 360.35702949 650.88031189 359.25 653.5 C357.35909931 657.58036465 355.52431627 659.56103012 351.875 662.25 C351.41609375 663.18070313 350.9571875 664.11140625 350.484375 665.0703125 C348.87239059 668.25515549 347.20731803 670.31199088 344.75 672.875 C340.44938163 677.51237152 336.65493287 682.38994586 332.91796875 687.48828125 C330.96355787 690.13028602 328.93896321 692.69309023 326.875 695.25 C325.81152344 696.61318359 325.81152344 696.61318359 324.7265625 698.00390625 C317.98480783 706.50797924 317.98480783 706.50797924 314.5 708.625 C311.75671182 710.04374767 311.75671182 710.04374767 310.5 712.5625 C307.71022528 717.17635818 303.32179797 720.23565935 299.1953125 723.6328125 C296.8394261 725.57367228 294.59748596 727.52751404 292.4375 729.6875 C286.88100113 735.24399887 281.0873008 739.44178403 274.3984375 743.57421875 C271.44672655 745.53441069 269.29101305 747.68298613 266.875 750.25 C265.885 750.58 264.895 750.91 263.875 751.25 C263.6275 751.848125 263.38 752.44625 263.125 753.0625 C261.52250251 755.86687061 259.41782818 756.76823541 256.6171875 758.23828125 C254.33101781 759.56589997 252.7021064 761.3576398 250.875 763.25 C249.885 763.58 248.895 763.91 247.875 764.25 C246.885 765.3328125 246.885 765.3328125 245.875 766.4375 C242.63788526 769.86328094 238.55937768 771.71134282 234.3984375 773.8203125 C231.91040859 775.07684373 231.91040859 775.07684373 230.41015625 776.7421875 C228.21319174 778.90002032 225.70979692 779.93410134 222.9375 781.25 C219.25955046 783.00010238 216.11294029 784.79948334 212.875 787.25 C210.9453125 788.12890625 210.9453125 788.12890625 209 788.8125 C208.31164062 789.05742188 207.62328125 789.30234375 206.9140625 789.5546875 C204.23866686 790.46698716 201.56329031 791.37630565 198.875 792.25 C198.875 792.91 198.875 793.57 198.875 794.25 C189.58929596 799.1273395 180.68314549 803.78745115 170.4765625 806.3984375 C167.73925686 807.29443244 166.13756262 808.50956722 163.875 810.25 C161.71875 811.0234375 161.71875 811.0234375 159.375 811.625 C155.58348942 812.67850222 152.13864264 813.98785315 148.5625 815.625 C142.06892105 818.42598677 135.40660253 819.89010331 128.53515625 821.43823242 C122.9549997 822.70896612 117.63204618 824.17861108 112.32421875 826.35546875 C109.61710294 827.34419207 106.87812989 828.04291866 104.07788086 828.71655273 C101.83393309 829.25994472 99.60379249 829.84584179 97.37109375 830.43359375 C70.73585485 837.1742659 43.21098867 837.83408538 15.875 838.25 C14.7317627 838.27191406 13.58852539 838.29382813 12.41064453 838.31640625 C-55.56146222 839.53001327 -55.56146222 839.53001327 -79.125 831.25 C-81.44602426 830.92424221 -83.73713952 830.75520625 -86.07421875 830.59375 C-88.125 830.25 -88.125 830.25 -91.125 828.25 C-93.46358502 827.54984182 -95.82109136 826.91192599 -98.1875 826.3125 C-102.55138336 825.19276803 -106.89126404 824.04797472 -111.1875 822.6875 C-114.89039649 821.53978331 -118.56523563 820.77485831 -122.375 820.0625 C-128.98451292 818.69551603 -135.21953522 816.60838432 -141.5625 814.3125 C-142.49803711 813.97645752 -143.43357422 813.64041504 -144.39746094 813.29418945 C-148.38858753 811.81558366 -152.1881867 810.32261744 -155.84765625 808.13671875 C-159.24460864 806.18114306 -162.37243536 805.10272733 -166.125 804 C-175.51918188 801.07165089 -184.13632343 796.59621303 -192.3046875 791.1171875 C-194.61209033 789.58957178 -196.6424251 788.46463758 -199.1875 787.4375 C-203.20048228 785.71082565 -207.07038557 783.78326981 -210.9375 781.75 C-212.01644531 781.1828125 -213.09539062 780.615625 -214.20703125 780.03125 C-217.125 778.25 -217.125 778.25 -219.12890625 776.21875 C-222.34059379 773.05105818 -226.3723084 771.64485392 -230.4453125 769.8125 C-233.3407351 768.12420694 -233.84258083 767.21753036 -235.125 764.25 C-236.053125 763.940625 -236.98125 763.63125 -237.9375 763.3125 C-241.77761226 762.03246258 -243.36238611 760.15428639 -246.125 757.25 C-247.48625 756.4765625 -247.48625 756.4765625 -248.875 755.6875 C-251.125 754.25 -251.125 754.25 -251.625 752.1875 C-251.79 751.548125 -251.955 750.90875 -252.125 750.25 C-252.82367188 749.97414063 -253.52234375 749.69828125 -254.2421875 749.4140625 C-257.78474094 747.98360054 -260.68511471 745.92363691 -263.75 743.6875 C-264.35956543 743.24639893 -264.96913086 742.80529785 -265.59716797 742.35083008 C-280.19933671 731.68968496 -280.19933671 731.68968496 -284.0859375 726.765625 C-286.34941719 723.97313281 -288.78118424 722.00395692 -291.625 719.8125 C-297.56578526 715.07560897 -297.56578526 715.07560897 -299.4375 711.9375 C-300.98451281 709.06626848 -300.98451281 709.06626848 -303.9375 707.375 C-309.426065 703.71595667 -313.24607847 698.76533918 -316.6875 693.1875 C-320.58697866 687.11107661 -325.71714727 682.0944964 -330.6875 676.8984375 C-333.00742336 674.45567155 -335.293697 671.99040662 -337.5234375 669.46484375 C-338.00989746 668.9143335 -338.49635742 668.36382324 -338.99755859 667.79663086 C-340.49594073 665.74114129 -340.70110235 663.72273631 -341.125 661.25 C-341.73472656 660.96769531 -342.34445312 660.68539062 -342.97265625 660.39453125 C-345.71864763 658.93432168 -346.44981692 657.45955535 -347.9375 654.75 C-349.92593116 651.25908844 -351.99025158 647.98203551 -354.375 644.75 C-361.29773113 635.02740872 -366.98601313 624.11340076 -371.9921875 613.29296875 C-373.10819598 611.11873186 -373.10819598 611.11873186 -375.03125 609.02734375 C-377.71753227 605.46401037 -379.15311035 601.76560768 -380.75 597.625 C-381.34339619 596.11081662 -381.93964341 594.59774671 -382.5390625 593.0859375 C-382.7963916 592.42126465 -383.0537207 591.7565918 -383.31884766 591.07177734 C-384.18399377 588.97673825 -384.18399377 588.97673825 -386.125 586.25 C-386.49625 584.826875 -386.49625 584.826875 -386.875 583.375 C-387.85195994 579.67818359 -389.41803887 576.38477778 -391.0625 572.9375 C-393.27399303 568.25810895 -394.99102191 563.75369011 -396.34375 558.76953125 C-397.24690869 555.85684449 -398.44521474 553.15930796 -399.6875 550.375 C-401.88127207 545.28231483 -402.85161675 540.57441273 -403.6015625 535.10546875 C-404.11635657 532.29715187 -404.9167804 530.04336601 -406.0625 527.4375 C-408.82570956 520.92567158 -409.93087221 514.18943558 -411.125 507.25 C-411.31739258 506.14350098 -411.50978516 505.03700195 -411.70800781 503.89697266 C-413.24249355 495.02419889 -414.71111327 486.14284209 -416.125 477.25 C-416.32488525 476.00138184 -416.32488525 476.00138184 -416.52880859 474.72753906 C-424.23809394 425.29131463 -425.17824063 354.06509698 -404.53515625 307.46875 C-403.31670437 304.68757452 -402.67479468 302.53088233 -402.25 299.5625 C-401.33250849 294.4933594 -399.47430199 290.1492124 -397.41015625 285.44921875 C-396.06742063 282.10666412 -395.11071434 278.79290217 -394.1875 275.3125 C-392.55293478 269.30580506 -390.31001176 263.87701356 -387.58984375 258.28515625 C-385.99565183 254.98199058 -384.55263224 251.62702341 -383.125 248.25 C-381.82529778 245.20267169 -380.50982602 242.16257176 -379.1875 239.125 C-378.85298828 238.33996094 -378.51847656 237.55492187 -378.17382812 236.74609375 C-376.25810495 232.36835254 -374.22229911 228.93380894 -371.125 225.25 C-370.22666204 223.33904493 -370.22666204 223.33904493 -369.6875 221.4375 C-368.38083346 217.6524279 -366.55438483 214.57340998 -364.3671875 211.234375 C-363.19528266 209.36227544 -362.24598197 207.49913837 -361.3125 205.5 C-357.58760651 197.82215832 -352.4488878 190.88230091 -347.125 184.25 C-346.63 183.404375 -346.135 182.55875 -345.625 181.6875 C-344.125 179.25 -344.125 179.25 -342.125 177.3125 C-339.97770081 175.31753982 -339.97770081 175.31753982 -338.8125 172.5 C-336.90118572 168.81895028 -334.53126639 166.18477222 -331.7578125 163.1328125 C-329.8992162 160.98964643 -328.57201607 158.68361793 -327.125 156.25 C-325.48070171 154.56126121 -323.81115782 152.89694485 -322.125 151.25 C-319.17499074 148.01867542 -316.47531195 144.78077568 -314.0625 141.125 C-311.16727154 136.82885454 -307.57446684 133.61086168 -303.625 130.3125 C-300.35181225 127.54941943 -297.81617688 124.57856088 -295.125 121.25 C-292.54886387 118.54175432 -289.95984565 116.11518012 -287.0625 113.75 C-284.08888713 111.3842017 -284.08888713 111.3842017 -282 108.5625 C-280.05207634 106.16006082 -278.83646211 105.5646483 -276.125 104.25 C-275.403125 103.528125 -274.68125 102.80625 -273.9375 102.0625 C-267.8618537 95.9868537 -260.66715308 91.1435631 -253.703125 86.14453125 C-250.12140232 83.51250777 -246.75443476 80.91171346 -243.6875 77.6875 C-240.9367564 75.07093901 -238.52490667 73.91787874 -235.125 72.25 C-233.52701941 71.16713967 -231.94510019 70.06040421 -230.375 68.9375 C-225.44586796 65.42093973 -220.34847003 62.30507155 -215.125 59.25 C-214.31675781 58.76144531 -213.50851562 58.27289063 -212.67578125 57.76953125 C-210.01966393 56.18725003 -207.33492055 54.67567266 -204.625 53.1875 C-203.7071875 52.68089844 -202.789375 52.17429688 -201.84375 51.65234375 C-199.125 50.25 -199.125 50.25 -196.546875 49.24609375 C-194.031789 48.21166322 -192.0832588 46.95349611 -189.875 45.375 C-185.48621877 42.37867262 -181.02761899 40.2597133 -176.125 38.25 C-174.92875 37.71375 -173.7325 37.1775 -172.5 36.625 C-169.125 35.25 -169.125 35.25 -165.8125 34.3125 C-159.6450493 32.53543793 -153.75685593 30.14811135 -148.0625 27.1875 C-143.88108127 25.04681352 -139.60582034 23.63187131 -135.125 22.25 C-133.53365234 21.73566406 -133.53365234 21.73566406 -131.91015625 21.2109375 C-122.22254982 18.12599525 -122.22254982 18.12599525 -118.0625 17.625 C-115.22346129 17.43210731 -115.22346129 17.43210731 -113.29296875 16.30859375 C-110.7194479 15.05197366 -108.30314624 14.52782666 -105.5 13.9375 C-101.70590035 13.10740969 -97.96394519 12.23161677 -94.25390625 11.0859375 C-74.03160141 4.8840773 -52.7754461 2.99607315 -31.75341797 1.45458984 C-29.96977871 1.31575558 -28.18744575 1.15922548 -26.40673828 0.98681641 C-17.60595122 0.15214275 -8.83235168 0.00770049 0 0 Z M-49.125 216.25 C-45.125 217.25 -45.125 217.25 -45.125 217.25 Z M-44.125 216.25 C-44.455 216.91 -44.785 217.57 -45.125 218.25 C-42.485 217.92 -39.845 217.59 -37.125 217.25 C-37.125 216.92 -37.125 216.59 -37.125 216.25 C-39.435 216.25 -41.745 216.25 -44.125 216.25 Z M-35.125 216.25 C-35.125 216.58 -35.125 216.91 -35.125 217.25 C-29.13686309 218.24291363 -23.20546754 218.55082838 -17.14453125 218.78515625 C-15.57066902 218.84962196 -15.57066902 218.84962196 -13.9650116 218.91539001 C-11.75042497 219.00528516 -9.53576671 219.0934304 -7.32104492 219.17993164 C-3.96578385 219.31139183 -0.61082844 219.44919853 2.74414062 219.58789062 C4.90623474 219.67485939 7.06834371 219.76145964 9.23046875 219.84765625 C10.71234932 219.90857201 10.71234932 219.90857201 12.22416687 219.97071838 C19.11061981 220.23548306 25.98380317 220.29399454 32.875 220.25 C32.875 219.92 32.875 219.59 32.875 219.25 C10.42067022 216.07744037 -12.48142728 215.99039216 -35.125 216.25 Z M-83.125 217.25 C-83.125 217.58 -83.125 217.91 -83.125 218.25 C-71.905 218.25 -60.685 218.25 -49.125 218.25 C-49.125 217.92 -49.125 217.59 -49.125 217.25 C-54.27314094 216.2020747 -59.21080424 216.10020935 -64.4375 216.125 C-65.24123047 216.12113281 -66.04496094 216.11726562 -66.87304688 216.11328125 C-72.36205959 216.12211313 -77.67918674 216.56176282 -83.125 217.25 Z M-113.125 218.25 C-113.125 218.58 -113.125 218.91 -113.125 219.25 C-103.225 219.25 -93.325 219.25 -83.125 219.25 C-84.92350077 217.03040199 -84.92350077 217.03040199 -87.3828125 217.01953125 C-95.98604357 217.14846251 -104.54455597 217.64022225 -113.125 218.25 Z M-126.125 219.25 C-126.125 219.58 -126.125 219.91 -126.125 220.25 C-121.835 220.25 -117.545 220.25 -113.125 220.25 C-113.125 219.92 -113.125 219.59 -113.125 219.25 C-117.415 219.25 -121.705 219.25 -126.125 219.25 Z M-153.125 221.25 C-153.455 221.91 -153.785 222.57 -154.125 223.25 C-146.11029415 222.70721733 -138.11196098 222.11494739 -130.125 221.25 C-130.125 220.92 -130.125 220.59 -130.125 220.25 C-141.69133669 219.85766752 -141.69133669 219.85766752 -153.125 221.25 Z M35.875 220.25 C35.875 220.58 35.875 220.91 35.875 221.25 C38.56193722 221.58851178 41.24940289 221.920936 43.9375 222.25 C44.68966797 222.34539062 45.44183594 222.44078125 46.21679688 222.5390625 C50.80921317 223.09571902 55.2492135 223.34829028 59.875 223.25 C56.14879175 221.32265091 53.08547252 220.12059795 48.86328125 220.15234375 C48.10595703 220.15556641 47.34863281 220.15878906 46.56835938 220.16210938 C45.78267578 220.17048828 44.99699219 220.17886719 44.1875 220.1875 C43.39021484 220.19201172 42.59292969 220.19652344 41.77148438 220.20117188 C39.80595743 220.2129415 37.84046915 220.23087652 35.875 220.25 Z M-174.125 225.25 C-170.125 226.25 -170.125 226.25 -170.125 226.25 Z M71.875 225.25 C71.875 225.58 71.875 225.91 71.875 226.25 C73.525 226.25 75.175 226.25 76.875 226.25 C76.875 225.92 76.875 225.59 76.875 225.25 C75.225 225.25 73.575 225.25 71.875 225.25 Z M-182.125 226.25 C-182.125 226.58 -182.125 226.91 -182.125 227.25 C-180.145 227.25 -178.165 227.25 -176.125 227.25 C-176.125 226.92 -176.125 226.59 -176.125 226.25 C-178.105 226.25 -180.085 226.25 -182.125 226.25 Z M77.875 226.25 C81.875 227.25 81.875 227.25 81.875 227.25 Z M-188.125 227.25 C-188.125 227.58 -188.125 227.91 -188.125 228.25 C-186.475 228.25 -184.825 228.25 -183.125 228.25 C-183.125 227.92 -183.125 227.59 -183.125 227.25 C-184.775 227.25 -186.425 227.25 -188.125 227.25 Z M84.875 227.25 C84.875 227.58 84.875 227.91 84.875 228.25 C87.515 228.25 90.155 228.25 92.875 228.25 C92.875 227.92 92.875 227.59 92.875 227.25 C90.235 227.25 87.595 227.25 84.875 227.25 Z M-209.125 230.25 C-205.47106463 231.51823485 -202.63429974 231.00715321 -198.875 230.3125 C-197.25851562 230.02052734 -197.25851562 230.02052734 -195.609375 229.72265625 C-194.37960937 229.48869141 -194.37960937 229.48869141 -193.125 229.25 C-193.125 228.92 -193.125 228.59 -193.125 228.25 C-198.91398419 228.04325056 -203.55432723 228.65837921 -209.125 230.25 Z M97.875 228.25 C97.875 228.58 97.875 228.91 97.875 229.25 C99.525 229.25 101.175 229.25 102.875 229.25 C102.875 228.92 102.875 228.59 102.875 228.25 C101.225 228.25 99.575 228.25 97.875 228.25 Z M102.875 229.25 C106.00998292 231.10776765 108.24971432 231.45140476 111.875 231.25 C109.91866025 228.83878141 109.91866025 228.83878141 106.25 229.125 C104.579375 229.186875 104.579375 229.186875 102.875 229.25 Z M114.875 231.25 C120.08158419 234.19735197 126.05500233 235.10723169 131.8293457 236.4465332 C133.9361485 236.93718525 136.03929622 237.44176108 138.14257812 237.94726562 C139.48157138 238.26126842 140.82075802 238.57444794 142.16015625 238.88671875 C143.37582275 239.17248779 144.59148926 239.45825684 145.84399414 239.75268555 C148.90944002 240.49721852 148.90944002 240.49721852 151.875 239.25 C151.215 239.25 150.555 239.25 149.875 239.25 C149.875 238.59 149.875 237.93 149.875 237.25 C148.95976563 237.13785156 148.04453125 237.02570313 147.1015625 236.91015625 C140.71102428 235.99837085 134.43664209 234.41593267 128.1484375 232.97851562 C127.1584375 232.75744141 126.1684375 232.53636719 125.1484375 232.30859375 C124.25560059 232.10548584 123.36276367 231.90237793 122.44287109 231.69311523 C119.86634208 231.24850598 117.48390236 231.17047103 114.875 231.25 Z M-224.125 234.25 C-219.67 233.755 -219.67 233.755 -215.125 233.25 C-215.125 232.92 -215.125 232.59 -215.125 232.25 C-219.09541037 232.02942165 -220.35812136 232.36656068 -224.125 234.25 Z M-232.125 235.25 C-232.125 235.58 -232.125 235.91 -232.125 236.25 C-230.475 236.25 -228.825 236.25 -227.125 236.25 C-227.125 235.92 -227.125 235.59 -227.125 235.25 C-228.775 235.25 -230.425 235.25 -232.125 235.25 Z M-241.125 237.25 C-241.455 237.91 -241.785 238.57 -242.125 239.25 C-240.475 238.92 -238.825 238.59 -237.125 238.25 C-238.445 237.92 -239.765 237.59 -241.125 237.25 Z M151.875 240.25 C155.875 241.25 155.875 241.25 155.875 241.25 Z M155.875 241.25 C157.70784443 242.37516085 157.70784443 242.37516085 159.875 243.25 C160.865 242.92 161.855 242.59 162.875 242.25 C160.565 241.92 158.255 241.59 155.875 241.25 Z M163.875 243.25 C167.875 244.25 167.875 244.25 167.875 244.25 Z M167.875 244.25 C170.22938733 245.67944945 171.35532433 246.33661261 174.125 245.875 C174.7025 245.66875 175.28 245.4625 175.875 245.25 C173.235 244.92 170.595 244.59 167.875 244.25 Z M179.875 247.25 C184.24884413 250.16589609 187.58042471 251.55254716 192.875 251.25 C189.78076832 248.15576832 186.3226188 247.31293995 182 247.125 C180.948125 247.186875 180.948125 247.186875 179.875 247.25 Z M195.875 252.25 C197.855 253.24 197.855 253.24 199.875 254.25 C199.545 253.59 199.215 252.93 198.875 252.25 C197.885 252.25 196.895 252.25 195.875 252.25 Z M-279.125 253.25 C-278.795 253.91 -278.465 254.57 -278.125 255.25 C-277.795 254.59 -277.465 253.93 -277.125 253.25 C-277.785 253.25 -278.445 253.25 -279.125 253.25 Z M199.875 254.25 C201.855 255.24 201.855 255.24 203.875 256.25 C203.875 255.59 203.875 254.93 203.875 254.25 C202.555 254.25 201.235 254.25 199.875 254.25 Z M-280.125 255.25 C-279.125 257.25 -279.125 257.25 -279.125 257.25 Z M210.875 258.25 C214.00998292 260.10776765 216.24971432 260.45140476 219.875 260.25 C216.74001708 258.39223235 214.50028568 258.04859524 210.875 258.25 Z M228.875 263.25 C229.865 264.24 230.855 265.23 231.875 266.25 C232.865 265.92 233.855 265.59 234.875 265.25 C232.05990007 262.9726499 232.05990007 262.9726499 228.875 263.25 Z M240.875 268.25 C242.195 269.24 243.515 270.23 244.875 271.25 C245.535 270.92 246.195 270.59 246.875 270.25 C246.215 269.59 245.555 268.93 244.875 268.25 C243.555 268.25 242.235 268.25 240.875 268.25 Z M258.875 276.25 C260.855 277.24 260.855 277.24 262.875 278.25 C262.545 277.59 262.215 276.93 261.875 276.25 C260.885 276.25 259.895 276.25 258.875 276.25 Z M268.875 281.25 C270.36 282.24 270.36 282.24 271.875 283.25 C271.875 282.59 271.875 281.93 271.875 281.25 C270.885 281.25 269.895 281.25 268.875 281.25 Z M275.875 284.25 C276.205 284.91 276.535 285.57 276.875 286.25 C277.535 285.92 278.195 285.59 278.875 285.25 C277.885 284.92 276.895 284.59 275.875 284.25 Z M290.875 292.25 C291.865 293.24 292.855 294.23 293.875 295.25 C293.545 294.26 293.215 293.27 292.875 292.25 C292.215 292.25 291.555 292.25 290.875 292.25 Z M-75.70532227 297.28460693 C-120.57917095 297.91260983 -166.47909172 302.17272071 -210.01245117 313.48364258 C-220.08474752 315.96359695 -230.34131881 317.6944054 -240.5625 319.4375 C-242.10647461 319.70336914 -242.10647461 319.70336914 -243.68164062 319.97460938 C-246.16245729 320.40154061 -248.64356644 320.8266719 -251.125 321.25 C-251.125 321.58 -251.125 321.91 -251.125 322.25 C-242.80919071 322.5530052 -235.73651842 322.52498499 -227.7578125 319.9765625 C-224.07210232 318.95943773 -220.44007173 318.74611547 -216.6328125 318.55859375 C-214.09008619 318.3557258 -214.09008619 318.3557258 -211.7421875 317.28515625 C-208.53016112 316.01472791 -205.55428279 315.65747524 -202.125 315.25 C-200.73037841 315.07232223 -199.33584969 314.89391425 -197.94140625 314.71484375 C-196.52351676 314.53842432 -195.10554715 314.36264764 -193.6875 314.1875 C-192.95595703 314.09662109 -192.22441406 314.00574219 -191.47070312 313.91210938 C-189.68887277 313.69083632 -187.90694639 313.47033671 -186.125 313.25 C-186.125 312.59 -186.125 311.93 -186.125 311.25 C-185.279375 311.12882812 -184.43375 311.00765625 -183.5625 310.8828125 C-182.428125 310.71523438 -181.29375 310.54765625 -180.125 310.375 C-179.01125 310.21257812 -177.8975 310.05015625 -176.75 309.8828125 C-173.06816256 309.29268325 -173.06816256 309.29268325 -169.296875 308.2421875 C-164.69377373 307.05603773 -160.10287837 306.64021644 -155.375 306.25 C-153.49211262 306.08549025 -151.60930146 305.92010599 -149.7265625 305.75390625 C-148.78329102 305.67156738 -147.84001953 305.58922852 -146.86816406 305.50439453 C-144.37326316 305.27302334 -141.88702556 305.00547792 -139.3984375 304.71484375 C-127.49870457 303.34816909 -115.62545084 302.86710905 -103.65869141 302.59155273 C-101.7432251 302.54430054 -101.7432251 302.54430054 -99.7890625 302.49609375 C-98.64904785 302.47216553 -97.5090332 302.4482373 -96.33447266 302.42358398 C-93.14784209 302.31293725 -93.14784209 302.31293725 -90.1328125 301.73852539 C-86.81157269 301.1990935 -83.69960757 301.15380246 -80.3359375 301.1875 C-79.06492187 301.19523437 -77.79390625 301.20296875 -76.484375 301.2109375 C-74.48534901 301.23053579 -72.48632298 301.25013936 -70.48730469 301.27050781 C-68.54104946 301.28860808 -66.59474071 301.3006323 -64.6484375 301.3125 C-62.914729 301.32990234 -62.914729 301.32990234 -61.14599609 301.34765625 C-58.57074112 301.26440896 -56.57869502 300.93716778 -54.125 300.25 C-50.56461819 300.11564597 -47.2765671 300.22754562 -43.75 300.75 C-40.17145561 301.24359233 -36.83754457 301.28978812 -33.23828125 301.1875 C-31.125 301.25 -31.125 301.25 -29.04296875 301.8125 C-26.92219958 302.47089399 -26.92219958 302.47089399 -24.125 301.25 C-22.1875 301.1171875 -22.1875 301.1171875 -20.125 301.125 C-19.444375 301.12242187 -18.76375 301.11984375 -18.0625 301.1171875 C-16.125 301.25 -16.125 301.25 -13.125 302.25 C-10.11379612 302.58961792 -7.08803445 302.71414281 -4.0625 302.875 C-2.82016602 302.95234375 -2.82016602 302.95234375 -1.55273438 303.03125 C-0.36454102 303.09699219 -0.36454102 303.09699219 0.84765625 303.1640625 C1.57218994 303.2048291 2.29672363 303.2455957 3.04321289 303.28759766 C4.97447531 303.37891446 4.97447531 303.37891446 6.875 302.25 C8.74755859 302.1965332 8.74755859 302.1965332 11.0234375 302.30078125 C11.85738037 302.33880859 12.69132324 302.37683594 13.55053711 302.41601562 C14.44135986 302.46435547 15.33218262 302.51269531 16.25 302.5625 C17.62200562 302.63307617 17.62200562 302.63307617 19.02172852 302.70507812 C24.62673279 303.02686804 29.99898083 303.70439715 35.51171875 304.7734375 C43.55745894 305.91348431 51.76051533 305.9694824 59.875 306.25 C59.875 305.92 59.875 305.59 59.875 305.25 C27.21277421 300.548273 -5.12578785 297.80711016 -38.125 297.25 C-38.81533325 297.23797546 -39.5056665 297.22595093 -40.21691895 297.21356201 C-52.05111394 297.01629039 -63.87151147 297.12589346 -75.70532227 297.28460693 Z M61.875 306.25 C61.875 306.58 61.875 306.91 61.875 307.25 C63.855 307.25 65.835 307.25 67.875 307.25 C67.875 306.92 67.875 306.59 67.875 306.25 C65.895 306.25 63.915 306.25 61.875 306.25 Z M68.875 307.25 C72.5191774 309.6794516 74.58741272 309.41179575 78.875 309.25 C78.875 308.92 78.875 308.59 78.875 308.25 C75.575 307.92 72.275 307.59 68.875 307.25 Z M304.875 308.25 C305.535 309.57 306.195 310.89 306.875 312.25 C307.205 311.26 307.535 310.27 307.875 309.25 C306.885 308.92 305.895 308.59 304.875 308.25 Z M84.875 310.25 C85.67896251 312.25662878 85.67896251 312.25662878 86.875 314.25 C89.71011477 315.13593682 89.71011477 315.13593682 92.9375 315.4375 C98.8096049 316.1846049 98.8096049 316.1846049 99.875 317.25 C101.68465829 317.41099102 103.49828958 317.52793396 105.3125 317.625 C109.47269603 317.92567768 113.1089192 318.48842341 117.0625 319.8125 C121.83855677 321.40709918 125.85958814 321.49268122 130.875 321.25 C127.33884837 319.21795794 123.80716848 318.44760287 119.8359375 317.59375 C119.15504059 317.44595093 118.47414368 317.29815186 117.77261353 317.14587402 C115.59946302 316.67553034 113.42477874 316.21274968 111.25 315.75 C109.81109476 315.43927941 108.37229154 315.12808595 106.93359375 314.81640625 C99.59337113 313.23117605 92.24568623 311.68796484 84.875 310.25 Z M307.875 314.25 C308.875 316.25 308.875 316.25 308.875 316.25 Z M-270.125 315.25 C-269.795 316.24 -269.465 317.23 -269.125 318.25 C-268.135 317.92 -267.145 317.59 -266.125 317.25 C-267.445 316.59 -268.765 315.93 -270.125 315.25 Z M-265.125 318.25 C-265.125 319.24 -265.125 320.23 -265.125 321.25 C-263.145 321.25 -261.165 321.25 -259.125 321.25 C-261.2635485 319.1114515 -262.25775314 318.82344937 -265.125 318.25 Z M-259.125 321.25 C-259.125 321.58 -259.125 321.91 -259.125 322.25 C-257.475 322.25 -255.825 322.25 -254.125 322.25 C-254.125 321.92 -254.125 321.59 -254.125 321.25 C-255.775 321.25 -257.425 321.25 -259.125 321.25 Z M134.875 322.25 C138.3102048 324.54013653 139.860331 324.42842973 143.875 324.25 C143.875 323.92 143.875 323.59 143.875 323.25 C140.905 322.92 137.935 322.59 134.875 322.25 Z M147.875 325.25 C148.60401433 327.84244796 148.60401433 327.84244796 150.875 330.25 C153.60266182 331.05277527 156.27051957 331.45765772 159.0859375 331.84765625 C161.42957068 332.18574339 163.50371764 332.65757502 165.75 333.375 C168.64526831 334.18567513 170.89335219 334.43070593 173.875 334.25 C173.00408985 331.92208352 173.00408985 331.92208352 170.03125 331.28515625 C168.8246875 330.96417969 167.618125 330.64320313 166.375 330.3125 C162.08118181 329.14265362 157.83260975 327.95066284 153.625 326.5 C150.21758008 325.14459074 150.21758008 325.14459074 147.875 325.25 Z M177.875 335.25 C182.36844368 339.89322514 186.74198764 340.01182476 192.875 340.25 C190.25075342 338.50050228 188.31772784 337.59610019 185.375 336.625 C184.6015625 336.36460937 183.828125 336.10421875 183.03125 335.8359375 C180.76490448 335.11888513 180.76490448 335.11888513 177.875 335.25 Z M193.875 340.25 C197.18163782 345.00329186 199.19424781 346.77403977 204.87890625 347.81640625 C207.79498466 348.44984011 210.24649468 349.87316388 212.875 351.25 C213.535 351.25 214.195 351.25 214.875 351.25 C214.875 351.91 214.875 352.57 214.875 353.25 C218.175 353.58 221.475 353.91 224.875 354.25 C221.99463238 352.08972428 220.01822123 350.7145284 216.86328125 349.3125 C216.10466797 348.97476562 215.34605469 348.63703125 214.56445312 348.2890625 C213.78005859 347.94617188 212.99566406 347.60328125 212.1875 347.25 C211.42244141 346.90710938 210.65738281 346.56421875 209.86914062 346.2109375 C204.63039679 343.89829911 199.33738543 341.96598364 193.875 340.25 Z M307.875 341.25 C308.875 344.25 308.875 344.25 308.875 344.25 Z M306.875 346.25 C306.545 347.57 306.215 348.89 305.875 350.25 C306.535 350.25 307.195 350.25 307.875 350.25 C307.545 348.93 307.215 347.61 306.875 346.25 Z M227.875 355.25 C228.535 355.91 229.195 356.57 229.875 357.25 C230.58210678 358.89991582 231.25443989 360.56562256 231.875 362.25 C235.175 362.58 238.475 362.91 241.875 363.25 C241.875 363.91 241.875 364.57 241.875 365.25 C248.47776158 367.79237175 254.92161339 369.93078041 261.875 371.25 C262.844375 371.476875 263.81375 371.70375 264.8125 371.9375 C269.23545423 372.38882186 273.47956581 371.81463087 277.875 371.25 C277.875 370.92 277.875 370.59 277.875 370.25 C277.02421875 370.270625 276.1734375 370.29125 275.296875 370.3125 C266.96974786 370.17076167 260.17155027 368.63628278 252.4375 365.5 C251.19661621 364.99726563 251.19661621 364.99726563 249.93066406 364.484375 C245.20222679 362.47502701 240.92403098 360.1712618 236.67944336 357.27368164 C233.79262574 355.63595653 231.1577205 355.45517003 227.875 355.25 Z M-74.69140625 361.65234375 C-75.56917221 361.69436417 -76.44693817 361.73638458 -77.3513031 361.77967834 C-79.19755396 361.86851629 -81.04375045 361.95849089 -82.88989258 362.04956055 C-85.65629651 362.18596147 -88.42284952 362.31888925 -91.18945312 362.45117188 C-95.65573223 362.66615399 -100.1214787 362.89027409 -104.58700562 363.12033081 C-106.24871125 363.20522935 -107.91051421 363.28824872 -109.57241821 363.36917114 C-117.54121431 363.75859843 -125.35451253 364.18944854 -133.1875 365.8125 C-133.87392578 365.95107422 -134.56035156 366.08964844 -135.26757812 366.23242188 C-136.88886277 366.56121386 -138.50733789 366.90382466 -140.125 367.25 C-140.125 367.58 -140.125 367.91 -140.125 368.25 C-131.58533685 367.83923139 -123.11172719 367.29923644 -114.625 366.25 C-88.70013429 363.18864756 -62.19742598 363.79350322 -36.125 363.25 C-36.125 362.92 -36.125 362.59 -36.125 362.25 C-39.08317147 362.07992033 -42.04148311 361.91386995 -45 361.75 C-45.82242188 361.70230469 -46.64484375 361.65460938 -47.4921875 361.60546875 C-48.3171875 361.56035156 -49.1421875 361.51523437 -49.9921875 361.46875 C-50.73581543 361.42685547 -51.47944336 361.38496094 -52.24560547 361.34179688 C-59.74037937 361.10285886 -67.20470604 361.27871985 -74.69140625 361.65234375 Z M-36.125 364.25 C-21.605 364.91 -7.085 365.57 7.875 366.25 C5.17210121 363.54710121 3.50626092 363.86170708 -0.27734375 363.6171875 C-1.52966797 363.53339844 -2.78199219 363.44960938 -4.07226562 363.36328125 C-5.38904297 363.28464844 -6.70582031 363.20601563 -8.0625 363.125 C-9.34447266 363.03863281 -10.62644531 362.95226562 -11.94726562 362.86328125 C-24.82102955 360.89651797 -24.82102955 360.89651797 -36.125 364.25 Z M290.375 364.0625 C286.52545019 366.70084999 282.31974142 367.94620918 277.875 369.25 C277.875 369.58 277.875 369.91 277.875 370.25 C283.42090313 369.89259735 288.14283315 369.44421263 292.875 366.25 C293.83544102 364.17309422 293.83544102 364.17309422 293.875 362.25 C292.49528427 362.15217207 292.49528427 362.15217207 290.375 364.0625 Z M8.875 365.25 C8.545 365.91 8.215 366.57 7.875 367.25 C13.155 367.58 18.435 367.91 23.875 368.25 C20.47068053 365.98045369 18.70975798 365.88450051 14.6875 365.625 C13.60082031 365.55023438 12.51414062 365.47546875 11.39453125 365.3984375 C10.14736328 365.32496094 10.14736328 365.32496094 8.875 365.25 Z M-147.125 368.25 C-147.125 368.58 -147.125 368.91 -147.125 369.25 C-145.145 369.25 -143.165 369.25 -141.125 369.25 C-141.125 368.92 -141.125 368.59 -141.125 368.25 C-143.105 368.25 -145.085 368.25 -147.125 368.25 Z M24.875 368.25 C24.875 368.58 24.875 368.91 24.875 369.25 C27.41546458 369.75688605 29.95708876 370.25566874 32.5 370.75 C33.21285156 370.89308594 33.92570312 371.03617187 34.66015625 371.18359375 C38.79644935 371.98049426 42.63933679 372.41034056 46.875 372.25 C40.40182323 367.93454882 32.43666317 368.00607538 24.875 368.25 Z M-161.125 371.25 C-156.2916528 371.33333357 -151.88807437 371.20261487 -147.125 370.25 C-147.125 369.92 -147.125 369.59 -147.125 369.25 C-148.70794782 369.19562393 -150.29144256 369.15703729 -151.875 369.125 C-152.75671875 369.10179687 -153.6384375 369.07859375 -154.546875 369.0546875 C-157.2385858 369.25860498 -158.82404974 369.88448279 -161.125 371.25 Z M-168.125 371.25 C-168.125 371.58 -168.125 371.91 -168.125 372.25 C-165.815 372.25 -163.505 372.25 -161.125 372.25 C-161.125 371.92 -161.125 371.59 -161.125 371.25 C-163.435 371.25 -165.745 371.25 -168.125 371.25 Z M-208.125 379.25 C-208.125 379.58 -208.125 379.91 -208.125 380.25 C-199.73785113 379.69322254 -191.69341382 378.0059147 -183.5 376.1875 C-182.19672706 375.90248001 -180.89334219 375.61797132 -179.58984375 375.33398438 C-176.43376282 374.64432225 -173.27890034 373.94955412 -170.125 373.25 C-170.125 372.92 -170.125 372.59 -170.125 372.25 C-182.93766364 371.46555121 -195.88708876 375.83032835 -208.125 379.25 Z M49.875 372.25 C49.875 372.58 49.875 372.91 49.875 373.25 C55.25527025 374.44088986 60.32791384 375.5419519 65.875 375.25 C65.25625 374.940625 64.6375 374.63125 64 374.3125 C62.625 373.625 61.25 372.9375 59.875 372.25 C58.16797265 372.18003986 56.45831997 372.16559846 54.75 372.1875 C53.83992188 372.19652344 52.92984375 372.20554687 51.9921875 372.21484375 C50.94417969 372.23224609 50.94417969 372.23224609 49.875 372.25 Z M65.875 375.25 C68.5837694 376.70069143 71.08909773 377.66451699 74.078125 378.36328125 C74.88628662 378.55704346 75.69444824 378.75080566 76.52709961 378.95043945 C77.8130603 379.25340942 77.8130603 379.25340942 79.125 379.5625 C87.08109829 381.47953599 94.83386924 383.725318 102.58984375 386.33203125 C105.55987592 387.16194512 107.82086597 387.45283623 110.875 387.25 C108.89279122 384.94132851 108.89279122 384.94132851 105.3125 384.25 C103.6109375 383.755 103.6109375 383.755 101.875 383.25 C101.38 382.26 101.38 382.26 100.875 381.25 C98.44757284 380.67333509 96.08257258 380.21234092 93.625 379.8125 C87.25983433 378.71163352 81.00796457 377.38756895 74.7421875 375.80078125 C71.72142746 375.22049901 68.94349289 375.15439414 65.875 375.25 Z M-218.125 382.25 C-214.31010326 383.71726798 -211.83488378 382.68336419 -208.125 381.25 C-208.125 380.92 -208.125 380.59 -208.125 380.25 C-212.07227588 380.07057837 -214.7230513 380.15649311 -218.125 382.25 Z M-243.125 389.25 C-243.125 389.91 -243.125 390.57 -243.125 391.25 C-240.815 390.59 -238.505 389.93 -236.125 389.25 C-239.13531744 388.31576355 -239.99150268 388.20550089 -243.125 389.25 Z M115.875 388.25 C118.82936422 389.8197202 121.75161729 390.92443514 124.9375 391.9375 C130.61054109 393.79349492 136.21408721 395.80740741 141.8125 397.875 C143.03755249 398.32685669 143.03755249 398.32685669 144.28735352 398.7878418 C145.06780029 399.07699463 145.84824707 399.36614746 146.65234375 399.6640625 C147.76005127 400.07253418 147.76005127 400.07253418 148.89013672 400.48925781 C150.51314857 401.11131254 152.10763858 401.80733728 153.69140625 402.5234375 C156.19346245 403.35596425 157.4328548 403.15449822 159.875 402.25 C159.24851562 401.98445313 158.62203125 401.71890625 157.9765625 401.4453125 C157.15929687 401.09210938 156.34203125 400.73890625 155.5 400.375 C154.68789063 400.02695312 153.87578125 399.67890625 153.0390625 399.3203125 C150.875 398.25 150.875 398.25 148.875 396.25 C146.77733895 395.64557416 146.77733895 395.64557416 144.4375 395.25 C141.16094366 394.64542947 139.7445435 394.163029 136.875 392.25 C135.22108154 391.85828247 133.55154729 391.52942455 131.875 391.25 C128.41340765 390.67306794 126.87370273 390.24913515 123.875 388.25 C121.81790404 388.00944532 121.81790404 388.00944532 119.6875 388.125 C118.429375 388.16625 117.17125 388.2075 115.875 388.25 Z M162.875 404.25 C166.63481134 407.58011862 170.39564211 409.47871203 175.0625 411.1875 C180.2892834 413.15233271 185.21987863 415.36698401 190.19555664 417.90063477 C192.97787103 419.30180576 195.7831185 420.64185205 198.6015625 421.96875 C199.5709375 422.42636719 200.5403125 422.88398437 201.5390625 423.35546875 C203.51941728 424.28816882 205.50120177 425.21783905 207.484375 426.14453125 C212.56024021 428.54710745 217.40550446 431.06007802 222.11865234 434.11572266 C224.64363471 435.74639656 227.26038419 437.20612121 229.875 438.6875 C234.83021067 441.5655264 239.44063478 444.62286146 243.875 448.25 C244.6175 448.8275 245.36 449.405 246.125 450 C251.13429371 456.44052048 252.2328647 463.03979653 252.25 471 C252.25161133 471.72082764 252.25322266 472.44165527 252.25488281 473.18432617 C252.16399578 477.55346798 251.47180556 481.18772665 249.875 485.25 C250.535 485.25 251.195 485.25 251.875 485.25 C256.24699554 475.34014344 255.81639883 463.55864075 252.875 453.25 C251.06264733 450.91115381 249.41139067 449.88808564 246.875 448.25 C246.20833333 446.91666667 245.54166667 445.58333333 244.875 444.25 C243.23166496 443.21210419 241.56256133 442.21432076 239.875 441.25 C239.27300781 440.6003125 238.67101562 439.950625 238.05078125 439.28125 C235.57246681 436.96756327 233.65481531 436.24955427 230.4375 435.25 C226.15915843 433.80308077 223.28202356 432.26764944 219.875 429.25 C218.9675 428.79625 218.06 428.3425 217.125 427.875 C214.3866739 426.50583695 212.16607962 425.07534005 209.6875 423.3125 C205.44609114 420.4108605 201.20552342 418.80138578 196.35546875 417.17578125 C193.875 416.25 193.875 416.25 191 414.3125 C186.9069657 411.61109736 182.59202391 410.1130583 178.00390625 408.421875 C175.56699824 407.50917537 173.23028398 406.53490704 170.875 405.4375 C167.9353133 404.27387401 165.99733995 403.96615091 162.875 404.25 Z M-258.125 420.25 C-257.125 422.25 -257.125 422.25 -257.125 422.25 Z M-78.125 429.25 C-75.90310176 431.47189824 -74.04017292 432.17598892 -71.125 433.25 C-70.795 432.92 -70.465 432.59 -70.125 432.25 C-67.79166667 432.25 -65.45833333 432.25 -63.125 432.25 C-61.44942621 431.96479595 -59.77682755 431.65044304 -58.125 431.25 C-58.125 430.59 -58.125 429.93 -58.125 429.25 C-64.725 429.25 -71.325 429.25 -78.125 429.25 Z M-44.125 430.25 C-42.37645567 432.46352406 -41.47763133 433.19061899 -38.65161133 433.66650391 C-37.6798999 433.68632324 -36.70818848 433.70614258 -35.70703125 433.7265625 C-34.62421875 433.75709717 -33.54140625 433.78763184 -32.42578125 433.8190918 C-30.69908203 433.84676636 -30.69908203 433.84676636 -28.9375 433.875 C-26.5793805 433.93437594 -24.22130613 433.99557195 -21.86328125 434.05859375 C-20.7129541 434.08679199 -19.56262695 434.11499023 -18.37744141 434.14404297 C-12.87122257 434.32342286 -7.39330434 434.78333061 -1.90625 435.26171875 C1.01862397 435.57579013 1.01862397 435.57579013 2.875 433.25 C-2.21082861 432.81742462 -7.2970834 432.39039894 -12.38378906 431.96826172 C-14.11015043 431.82423717 -15.83639131 431.67876012 -17.5625 431.53173828 C-26.43260049 430.77716376 -35.21369045 430.03041948 -44.125 430.25 Z M-122.4375 431.75 C-124.25712424 431.89499903 -126.07678556 432.03953358 -127.89648438 432.18359375 C-132.30643465 432.53371718 -136.71583773 432.89009443 -141.125 433.25 C-141.125 433.58 -141.125 433.91 -141.125 434.25 C-131.25874928 434.38413332 -121.42247539 434.17704378 -111.5625 433.8125 C-109.88631592 433.75364624 -109.88631592 433.75364624 -108.17626953 433.69360352 C-98.17112196 433.7046281 -98.17112196 433.7046281 -89.125 430.25 C-100.29760817 429.9733425 -111.31185445 430.84024722 -122.4375 431.75 Z M-158.6875 435.4375 C-159.49123047 435.56842041 -160.29496094 435.69934082 -161.12304688 435.83422852 C-170.87824435 437.47276786 -180.54575736 439.55073184 -190.21533203 441.62695312 C-192.99494001 442.22215027 -195.77621834 442.80851673 -198.55859375 443.390625 C-199.40615234 443.56795166 -200.25371094 443.74527832 -201.12695312 443.92797852 C-201.93068359 444.09612061 -202.73441406 444.2642627 -203.5625 444.4375 C-205.01968088 444.74277621 -206.47671959 445.04873209 -207.93359375 445.35546875 C-208.61711914 445.49936035 -209.30064453 445.64325195 -210.00488281 445.79150391 C-211.50661859 446.11626897 -213.00576806 446.45310114 -214.50292969 446.79833984 C-215.68290527 447.07025146 -215.68290527 447.07025146 -216.88671875 447.34765625 C-217.59401123 447.51402588 -218.30130371 447.68039551 -219.0300293 447.85180664 C-226.513559 449.27420927 -233.77301748 447.78910662 -241.125 446.25 C-240.795 447.24 -240.465 448.23 -240.125 449.25 C-226.40710685 451.85702042 -211.43099859 450.62873291 -198.01953125 447.0078125 C-190.10790697 444.93648307 -181.96865231 443.90203012 -173.875 442.8125 C-170.92551699 442.38907845 -170.92551699 442.38907845 -168.125 440.25 C-166.01183564 439.8655294 -163.88306161 439.56415334 -161.75 439.3125 C-154.74719386 438.40067628 -147.97305206 436.95632526 -141.125 435.25 C-141.125 434.92 -141.125 434.59 -141.125 434.25 C-147.13848519 434.1374323 -152.76205388 434.44324119 -158.6875 435.4375 Z M4.875 434.25 C8.36727431 437.4688892 11.48339611 437.87878842 16.125 438.4375 C17.38828125 438.59605469 18.6515625 438.75460937 19.953125 438.91796875 C20.91734375 439.02753906 21.8815625 439.13710938 22.875 439.25 C22.875 439.91 22.875 440.57 22.875 441.25 C23.53918945 441.33040527 24.20337891 441.41081055 24.88769531 441.49365234 C49.43267003 444.47770147 49.43267003 444.47770147 58.875 446.25 C59.79539062 446.41371094 60.71578125 446.57742188 61.6640625 446.74609375 C68.41316732 448.00061035 68.41316732 448.00061035 70.828125 449.3046875 C73.39187957 450.48871156 75.31581746 450.44892586 78.125 450.375 C79.46304688 450.34792969 79.46304688 450.34792969 80.828125 450.3203125 C81.50359375 450.29710937 82.1790625 450.27390625 82.875 450.25 C80.2479737 448.86066498 77.75988988 447.83316887 74.890625 447.06640625 C74.1289502 446.86265381 73.36727539 446.65890137 72.58251953 446.44897461 C71.77153809 446.23893799 70.96055664 446.02890137 70.125 445.8125 C69.27663574 445.59150635 68.42827148 445.3705127 67.55419922 445.14282227 C60.43159963 443.32384657 53.29775208 441.90721109 46.0546875 440.64453125 C43.6447943 440.20833194 41.24481606 439.7323894 38.84375 439.25 C27.55148887 436.99487178 16.34138949 435.31403614 4.875 434.25 Z M-248.125 442.25 C-247.795 443.24 -247.465 444.23 -247.125 445.25 C-244.155 445.745 -244.155 445.745 -241.125 446.25 C-243.29924117 443.74962266 -244.85545798 442.81371414 -248.125 442.25 Z M84.875 450.25 C86.77901138 452.15401138 88.20925686 453.18520439 90.921875 453.44921875 C92.90733273 453.4386578 94.8919914 453.34915043 96.875 453.25 C93.04982487 450.85926555 89.27834476 450.69033448 84.875 450.25 Z M96.875 453.25 C100.47105448 457.65806678 102.9794226 458.75457349 108.5234375 459.71875 C112.30039123 460.5720153 115.50993281 462.38589803 118.875 464.25 C120.91306674 465.39307105 120.91306674 465.39307105 123.5625 465.6875 C132.89772727 467.27272727 132.89772727 467.27272727 135.875 470.25 C138.53037372 470.81520003 141.16644713 470.98788198 143.875 471.25 C143.875 471.91 143.875 472.57 143.875 473.25 C144.968125 473.70375 146.06125 474.1575 147.1875 474.625 C149.69637765 475.66642091 151.57217067 476.71478044 153.875 478.25 C155.81805778 478.71106456 157.76140023 479.17101153 159.70703125 479.62109375 C162.60630349 480.46214389 165.07889809 481.82542328 167.7265625 483.25390625 C170.15405927 484.37938203 172.53023283 484.98201517 175.125 485.625 C179.64329705 486.85850191 179.64329705 486.85850191 181.6875 490.3125 C184.50317094 494.09354384 186.05865873 493.94176918 190.625 494.625 C192.70563735 494.85872798 194.78859155 495.07512762 196.875 495.25 C197.205 496.24 197.535 497.23 197.875 498.25 C201.79169143 499.93822906 205.62566132 501.20158617 209.75 502.25 C212.875 503.25 212.875 503.25 214.875 506.25 C219.38474248 507.04936351 224.72610387 507.5208051 228.77734375 505.125 C230.29699421 503.64964601 230.29699421 503.64964601 231.875 501.25 C228.95934446 500.00640165 228.95934446 500.00640165 226.18359375 500.765625 C222.2197689 501.34592521 218.81207629 500.78444591 214.9375 500 C213.92139648 499.81630859 213.92139648 499.81630859 212.88476562 499.62890625 C204.8309448 498.06910586 197.88159285 494.28934573 190.64453125 490.5546875 C188.04118697 489.1913314 188.04118697 489.1913314 185.69921875 488.8203125 C183.875 488.25 183.875 488.25 182.49609375 486.3046875 C180.28753374 483.50540421 178.3615939 483.24658754 174.9375 482.375 C169.06033852 480.72020146 163.91680035 478.47271282 158.53125 475.6171875 C155.92123963 474.20795067 155.92123963 474.20795067 153.21875 473.2578125 C150.875 472.25 150.875 472.25 149.453125 470.73828125 C147.1256499 468.54331092 144.70774202 468.20818551 141.625 467.4375 C136.28029661 466.00193917 131.23459874 464.30644805 126.125 462.1875 C121.17552804 460.1387873 116.2510714 458.34898918 111.08984375 456.90625 C108.83572204 456.23836208 106.68486819 455.42842941 104.5 454.5625 C100.89070487 453.02303928 100.89070487 453.02303928 96.875 453.25 Z M245.875 489.25 C245.00842884 490.34445838 244.15707276 491.45097781 243.3125 492.5625 C239.94776066 496.60673658 236.86743424 497.78670031 231.875 499.25 C233.855 500.24 233.855 500.24 235.875 501.25 C236.865 500.59 237.855 499.93 238.875 499.25 C239.885625 498.940625 240.89625 498.63125 241.9375 498.3125 C245.15130502 497.4787898 245.15130502 497.4787898 246.875 494.25 C247.04213569 491.62468476 247.04213569 491.62468476 246.875 489.25 C246.545 489.25 246.215 489.25 245.875 489.25 Z M-72.125 498.25 C-72.125 498.58 -72.125 498.91 -72.125 499.25 C-65.525 499.25 -58.925 499.25 -52.125 499.25 C-52.125 498.92 -52.125 498.59 -52.125 498.25 C-58.725 498.25 -65.325 498.25 -72.125 498.25 Z M-101.125 499.25 C-101.125 499.58 -101.125 499.91 -101.125 500.25 C-94.525 500.25 -87.925 500.25 -81.125 500.25 C-81.125 499.92 -81.125 499.59 -81.125 499.25 C-87.725 499.25 -94.325 499.25 -101.125 499.25 Z M-52.125 499.25 C-52.125 499.58 -52.125 499.91 -52.125 500.25 C-43.875 500.25 -35.625 500.25 -27.125 500.25 C-27.125 499.92 -27.125 499.59 -27.125 499.25 C-35.375 499.25 -43.625 499.25 -52.125 499.25 Z M-125.125 500.25 C-125.125 500.58 -125.125 500.91 -125.125 501.25 C-122.815 501.25 -120.505 501.25 -118.125 501.25 C-118.125 500.92 -118.125 500.59 -118.125 500.25 C-120.435 500.25 -122.745 500.25 -125.125 500.25 Z M-20.125 500.25 C-16.125 501.25 -16.125 501.25 -16.125 501.25 Z M-15.125 500.25 C-15.125 500.58 -15.125 500.91 -15.125 501.25 C-13.475 501.25 -11.825 501.25 -10.125 501.25 C-10.125 500.92 -10.125 500.59 -10.125 500.25 C-11.775 500.25 -13.425 500.25 -15.125 500.25 Z M-147.125 503.25 C-147.125 503.58 -147.125 503.91 -147.125 504.25 C-139.77248331 503.71589137 -132.44597997 503.11859084 -125.125 502.25 C-125.125 501.92 -125.125 501.59 -125.125 501.25 C-132.74814474 501.01423264 -139.71069409 501.41282685 -147.125 503.25 Z M-8.125 501.25 C-8.125 501.58 -8.125 501.91 -8.125 502.25 C-5.815 502.25 -3.505 502.25 -1.125 502.25 C-1.125 501.92 -1.125 501.59 -1.125 501.25 C-3.435 501.25 -5.745 501.25 -8.125 501.25 Z M-1.125 503.25 C1.61793226 503.6905364 4.36092544 504.13068724 7.10400391 504.5703125 C9.42023078 504.94179827 11.73631053 505.31420243 14.05224609 505.6875 C20.96942254 506.8059816 20.96942254 506.8059816 27.90234375 507.8203125 C36.10529768 508.95817496 43.90575612 511.0487996 51.875 513.25 C58.34388886 515.06222469 58.34388886 515.06222469 64.875 514.25 C64.10414063 514.05664062 63.33328125 513.86328125 62.5390625 513.6640625 C61.53617188 513.40367187 60.53328125 513.14328125 59.5 512.875 C58.50226563 512.61976563 57.50453125 512.36453125 56.4765625 512.1015625 C53.875 511.25 53.875 511.25 51.875 509.25 C50.25605287 508.98017548 48.63408193 508.72183421 47.00390625 508.53125 C44.5790822 508.21090627 42.20837224 507.74146097 39.8125 507.25 C36.17522152 506.50725244 32.53921593 505.84823933 28.875 505.25 C27.67617188 505.01796875 27.67617188 505.01796875 26.453125 504.78125 C20.76486636 503.68859015 15.16063958 502.91865125 9.3828125 502.49609375 C6.875 502.25 6.875 502.25 4.2421875 501.59765625 C1.61224377 500.94148783 1.61224377 500.94148783 -1.125 503.25 Z M-163.125 505.25 C-164.72084 505.58196765 -166.32771332 505.86126826 -167.9375 506.1171875 C-168.93136719 506.28089844 -169.92523438 506.44460938 -170.94921875 506.61328125 C-173.03472185 506.94932172 -175.12064962 507.28273917 -177.20703125 507.61328125 C-183.44684501 508.64657518 -189.18034123 510.08267649 -195.125 512.25 C-191.65106326 513.40797891 -189.88928707 513.06287535 -186.3125 512.4375 C-185.29542969 512.26605469 -184.27835938 512.09460938 -183.23046875 511.91796875 C-180.14735174 511.32418246 -180.14735174 511.32418246 -177.3671875 510.2734375 C-172.9912449 508.89211586 -168.59944041 508.31477267 -164.0625 507.6875 C-162.30062857 507.43727063 -160.53890458 507.18600044 -158.77734375 506.93359375 C-157.96507324 506.81741699 -157.15280273 506.70124023 -156.31591797 506.58154297 C-153.90072548 506.21606142 -151.51152529 505.77096706 -149.125 505.25 C-149.125 504.92 -149.125 504.59 -149.125 504.25 C-151.27076637 504.22314062 -153.41662645 504.20366912 -155.5625 504.1875 C-157.35494141 504.17009766 -157.35494141 504.17009766 -159.18359375 504.15234375 C-162.01373341 503.91098208 -162.01373341 503.91098208 -163.125 505.25 Z M-199.125 513.25 C-195.125 514.25 -195.125 514.25 -195.125 514.25 Z M70.875 516.25 C70.875 516.58 70.875 516.91 70.875 517.25 C72.525 517.25 74.175 517.25 75.875 517.25 C75.875 516.92 75.875 516.59 75.875 516.25 C74.225 516.25 72.575 516.25 70.875 516.25 Z M-224.125 519.25 C-225.89690909 520.60444301 -225.89690909 520.60444301 -227.125 522.25 C-224.815 521.59 -222.505 520.93 -220.125 520.25 C-221.96200789 519.47757731 -221.96200789 519.47757731 -224.125 519.25 Z M80.875 519.25 C84.26901157 521.51267438 87.63547219 522.49197257 91.5 523.625 C96.88061765 525.24292267 101.95358356 527.04988238 107.03515625 529.46875 C109.58928314 530.55330494 112.12696831 530.9681506 114.875 531.25 C106.70799403 524.49312456 91.42222632 519.25 80.875 519.25 Z M-230.125 522.25 C-230.785 522.91 -231.445 523.57 -232.125 524.25 C-230.475 523.92 -228.825 523.59 -227.125 523.25 C-228.115 522.92 -229.105 522.59 -230.125 522.25 Z M-240.125 532.25 C-239.795 533.24 -239.465 534.23 -239.125 535.25 C-238.795 534.26 -238.465 533.27 -238.125 532.25 C-238.785 532.25 -239.445 532.25 -240.125 532.25 Z M117.875 532.25 C120.25588619 533.83725746 122.4024305 535.03768676 124.97265625 536.23828125 C126.16846313 536.80023193 126.16846313 536.80023193 127.38842773 537.37353516 C128.22962158 537.76589355 129.07081543 538.15825195 129.9375 538.5625 C136.03624242 541.41298046 142.07618825 544.30002469 147.96484375 547.5703125 C150.31264959 548.40572808 151.56076357 548.06800751 153.875 547.25 C146.61154978 543.55938205 139.29908241 540.01809764 131.8828125 536.64453125 C129.78915778 535.67383679 127.71974443 534.64983064 125.671875 533.5859375 C122.77158788 532.20060482 121.03904648 531.97081943 117.875 532.25 Z M-242.125 547.25 C-241.125 550.25 -241.125 550.25 -241.125 550.25 Z M153.875 548.25 C154.865 549.24 155.855 550.23 156.875 551.25 C157.535 550.92 158.195 550.59 158.875 550.25 C158.215 549.59 157.555 548.93 156.875 548.25 C155.885 548.25 154.895 548.25 153.875 548.25 Z M158.875 551.25 C163.82716315 555.56446005 169.42882239 558.39156939 175.19335938 561.45117188 C186.54994083 567.59988167 186.54994083 567.59988167 188.875 572.25 C189.535 572.25 190.195 572.25 190.875 572.25 C190.32353076 568.38971531 188.86397847 566.70249515 185.875 564.25 C183.8794247 563.18124001 181.85277031 562.21011807 179.8046875 561.24609375 C177.875 560.25 177.875 560.25 175.5625 558.3125 C170.9250481 554.75352529 164.8103583 551.25 158.875 551.25 Z M-241.125 552.25 C-240.125 554.25 -240.125 554.25 -240.125 554.25 Z M-168.125 561.25 C-168.125 561.58 -168.125 561.91 -168.125 562.25 C-160.08499858 562.45751625 -152.34501547 561.83095315 -144.375 560.8125 C-135.90750371 559.7764967 -127.50303832 558.88057164 -118.98046875 558.4609375 C-116.20837357 558.32065524 -116.20837357 558.32065524 -113.86816406 557.77148438 C-100.72924884 555.27373403 -86.68718839 556.09401663 -73.37963867 556.11962891 C-70.06489502 556.12499612 -66.75028648 556.11964868 -63.43554688 556.11328125 C-33.56700173 556.10266609 -33.56700173 556.10266609 -27.125 558.25 C-25.64582541 558.27026267 -24.16581272 558.24190191 -22.6875 558.1875 C-16.93175791 558.12544348 -11.28305288 558.61712678 -5.5625 559.1875 C-4.66926025 559.27443115 -3.77602051 559.3613623 -2.85571289 559.45092773 C3.61848439 560.12174219 3.61848439 560.12174219 5.875 561.25 C7.65936611 561.53040039 9.45328235 561.75204791 11.25 561.9375 C12.20648437 562.04449219 13.16296875 562.15148437 14.1484375 562.26171875 C17.06816129 562.24916979 18.36372864 561.62158175 20.875 560.25 C-40.51541926 548.22725033 -106.76352421 549.79423292 -168.125 561.25 Z M-240.125 554.25 C-239.795 556.23 -239.465 558.21 -239.125 560.25 C-238.135 559.92 -237.145 559.59 -236.125 559.25 C-237.09385372 557.56503702 -238.09486723 555.89821244 -239.125 554.25 C-239.455 554.25 -239.785 554.25 -240.125 554.25 Z M20.875 561.25 C20.875 561.58 20.875 561.91 20.875 562.25 C22.525 562.25 24.175 562.25 25.875 562.25 C25.875 561.92 25.875 561.59 25.875 561.25 C24.225 561.25 22.575 561.25 20.875 561.25 Z M-181.79296875 563.52734375 C-183.01564453 563.79353516 -184.23832031 564.05972656 -185.49804688 564.33398438 C-186.75681641 564.61564453 -188.01558594 564.89730469 -189.3125 565.1875 C-190.58287109 565.46529297 -191.85324219 565.74308594 -193.16210938 566.02929688 C-199.24720193 567.3401835 -199.24720193 567.3401835 -205.29125977 568.82324219 C-212.2071693 570.43274956 -221.79750176 570.47065108 -228.125 567.25 C-229.115 566.59 -230.105 565.93 -231.125 565.25 C-231.455 566.57 -231.785 567.89 -232.125 569.25 C-230.76375 569.4046875 -230.76375 569.4046875 -229.375 569.5625 C-226.04570026 570.26677494 -224.68780941 571.12905428 -222.125 573.25 C-215.9745279 575.30015737 -209.42639606 574.15019944 -203.125 573.25 C-203.125 572.59 -203.125 571.93 -203.125 571.25 C-202.14402344 571.24742187 -201.16304687 571.24484375 -200.15234375 571.2421875 C-188.0825805 570.97855687 -178.8827516 567.76201629 -168.125 562.25 C-172.89811347 562.12641079 -177.13404937 562.49987447 -181.79296875 563.52734375 Z M28.875 562.25 C31.46174403 564.83674403 33.58918504 564.93636719 37.09765625 565.58984375 C37.68417969 565.80769531 38.27070312 566.02554688 38.875 566.25 C39.205 567.24 39.535 568.23 39.875 569.25 C40.49431396 569.35022461 41.11362793 569.45044922 41.75170898 569.55371094 C44.60753137 570.0232487 47.45986296 570.5114973 50.3125 571 C51.28638672 571.15726563 52.26027344 571.31453125 53.26367188 571.4765625 C58.92494415 572.46113159 63.66112944 573.90383344 68.83178711 576.38964844 C71.84260462 577.65743681 74.69554216 577.86349651 77.9375 578 C79.62552734 578.08507812 79.62552734 578.08507812 81.34765625 578.171875 C82.18167969 578.19765625 83.01570313 578.2234375 83.875 578.25 C80.48770584 575.99180389 77.08046298 574.82170967 73.25 573.5625 C72.0889978 573.17928589 72.0889978 573.17928589 70.90454102 572.78833008 C63.91745165 570.52156531 56.87674746 568.44936341 49.8125 566.4375 C48.76690918 566.13561768 47.72131836 565.83373535 46.64404297 565.52270508 C40.69448214 563.8576841 35.03561366 562.74361837 28.875 562.25 Z M190.875 572.25 C192.18724548 576.18673644 193.79410327 578.47719294 196.875 581.25 C196.00027407 576.29485498 196.00027407 576.29485498 192.75 572.8125 C192.13125 572.626875 191.5125 572.44125 190.875 572.25 Z M84.875 578.25 C87.5348561 581.69216672 90.77788286 582.24504674 94.875 583.25 C94.875 583.91 94.875 584.57 94.875 585.25 C95.82375 585.476875 96.7725 585.70375 97.75 585.9375 C101.92608922 587.12100707 105.61645583 589.04019448 109.46484375 591.01953125 C113.9442191 593.30640846 118.44061735 595.12549966 123.25 596.5625 C127.61242002 597.97212552 131.01395159 600.14520216 134.75 602.765625 C139.80055844 606.29358862 145.17584946 608.93405306 150.875 611.25 C152.89677256 612.08105206 154.91752853 612.9145797 156.9375 613.75 C157.9790625 614.17539062 159.020625 614.60078125 160.09375 615.0390625 C162.875 616.25 162.875 616.25 165.9375 618.125 C171.27362497 620.16862233 176.98139039 619.52084206 182.1875 617.234375 C186.2944884 614.77640467 189.67281529 611.81814868 192.875 608.25 C193.473125 607.59 194.07125 606.93 194.6875 606.25 C196.15997775 603.77003747 196.11131935 602.08583219 195.875 599.25 C193.46855801 601.48455328 191.82677094 603.33903827 190.25 606.25 C186.28174132 611.26253728 181.25885041 612.74990056 175.046875 613.66796875 C161.36523356 614.34473444 150.08318929 607.44614158 138.56665039 600.98754883 C127.40456269 594.76770217 115.77374498 589.6131616 104.02734375 584.60546875 C101.44668425 583.49581714 98.91266555 582.32755047 96.375 581.125 C92.48713383 579.37779428 89.11089008 578.61050128 84.875 578.25 Z M196.875 587.25 C197.875 591.25 197.875 591.25 197.875 591.25 Z M195.875 595.25 C196.875 599.25 196.875 599.25 196.875 599.25 Z " fill="#D61B18" transform="translate(506.125,92.75)"/>
<path d="M0 0 C3.09880286 0.12983607 6.19788356 0.24964875 9.29711914 0.36865234 C28.33689992 1.13203291 47.31093267 2.58924437 66.23657227 4.81787109 C67.92169922 5.00639648 67.92169922 5.00639648 69.64086914 5.19873047 C70.70241211 5.32183594 71.76395508 5.44494141 72.85766602 5.57177734 C74.25456665 5.73335327 74.25456665 5.73335327 75.6796875 5.89819336 C77.79907227 6.25537109 77.79907227 6.25537109 78.79907227 7.25537109 C80.7986559 7.29617892 82.79952481 7.29791466 84.79907227 7.25537109 C84.79907227 7.91537109 84.79907227 8.57537109 84.79907227 9.25537109 C88.26407227 8.76037109 88.26407227 8.76037109 91.79907227 8.25537109 C91.79907227 8.91537109 91.79907227 9.57537109 91.79907227 10.25537109 C92.49387695 10.20896484 93.18868164 10.16255859 93.90454102 10.11474609 C129.02906321 8.86824847 171.81186809 23.47154617 204.79907227 35.25537109 C208.71707824 36.73367491 208.71707824 36.73367491 212.79907227 37.25537109 C212.79907227 37.91537109 212.79907227 38.57537109 212.79907227 39.25537109 C214.28407227 38.76037109 214.28407227 38.76037109 215.79907227 38.25537109 C215.79907227 38.91537109 215.79907227 39.57537109 215.79907227 40.25537109 C216.63567383 40.40232422 217.47227539 40.54927734 218.33422852 40.70068359 C227.67708548 42.50096833 236.08866857 45.48562994 244.79907227 49.25537109 C246.03059178 49.7754978 247.26236253 50.29503004 248.49438477 50.81396484 C260.44377681 55.89884548 272.13976817 61.54278033 283.79907227 67.25537109 C284.57863281 67.63371094 285.35819336 68.01205078 286.16137695 68.40185547 C294.22481909 72.34430662 300.89017654 76.38704127 306.79907227 83.25537109 C307.56477539 84.00367188 307.56477539 84.00367188 308.34594727 84.76708984 C315.12697245 91.71217209 317.82132146 101.12112758 318.23657227 110.63037109 C317.86240072 123.06712052 312.50917413 134.52240807 303.79907227 143.25537109 C301.54907227 144.88037109 301.54907227 144.88037109 298.79907227 146.25537109 C298.00887695 146.66787109 297.21868164 147.08037109 296.40454102 147.50537109 C287.06607337 152.31816848 277.65936673 154.46081024 267.2722168 151.54638672 C258.88820372 148.67115516 251.07553043 145.17521954 243.63769531 140.36010742 C241.02099589 138.78786404 238.32504894 137.87046734 235.42407227 136.94287109 C229.70512101 134.99977619 224.23614209 132.75006908 218.73657227 130.25537109 C203.13057588 123.21516991 187.01876746 117.56179078 170.60375977 112.70458984 C166.54664212 111.50006467 162.58436791 110.15123911 158.61157227 108.69287109 C150.36870078 105.66891481 142.13580157 103.62974779 133.54907227 101.88037109 C131.4162402 101.44036177 129.28342797 101.00025625 127.15063477 100.56005859 C125.03346845 100.12505963 122.91628152 99.69016103 120.79907227 99.25537109 C117.17320837 98.50947221 113.54829864 97.75918192 109.92407227 97.00537109 C109.12839844 96.84246582 108.33272461 96.67956055 107.51293945 96.51171875 C102.02625716 95.36896354 102.02625716 95.36896354 99.79907227 94.25537109 C99.79907227 93.59537109 99.79907227 92.93537109 99.79907227 92.25537109 C99.18161133 92.19478516 98.56415039 92.13419922 97.92797852 92.07177734 C96.15167294 91.89603935 94.37564647 91.71746564 92.59985352 91.53662109 C90.84815227 91.36071804 89.09561603 91.19274224 87.34204102 91.03662109 C86.58536133 90.96443359 85.82868164 90.89224609 85.04907227 90.81787109 C84.37360352 90.75728516 83.69813477 90.69669922 83.00219727 90.63427734 C80.79907227 90.25537109 80.79907227 90.25537109 77.89672852 89.28662109 C69.54587568 86.50651372 60.67469585 86.12577178 51.94238281 85.7199707 C45.35319528 85.37309513 38.84331678 84.58192473 32.29907227 83.75537109 C22.45644719 82.53351291 12.71145413 81.60919423 2.79907227 81.25537109 C1.6545459 81.2117041 0.51001953 81.16803711 -0.66918945 81.12304688 C-22.51334112 80.31137253 -44.34331726 79.91629763 -66.20092773 80.25537109 C-67.05243408 80.26679138 -67.90394043 80.27821167 -68.78125 80.28997803 C-113.62986818 80.91762782 -159.56698069 85.13859192 -203.06884766 96.48706055 C-207.89310581 97.67046848 -212.76133329 98.60515688 -217.63720703 99.54638672 C-221.3228723 100.27963135 -224.9753666 101.10483418 -228.63842773 101.94287109 C-242.4726819 104.65177741 -253.47452699 104.46041144 -265.65014648 96.69287109 C-269.59636293 93.93809522 -269.59636293 93.93809522 -271.20092773 92.25537109 C-271.20092773 91.26537109 -271.20092773 90.27537109 -271.20092773 89.25537109 C-271.80678711 89.02076172 -272.41264648 88.78615234 -273.03686523 88.54443359 C-277.9587974 85.61259674 -279.70333187 78.67707357 -281.51342773 73.50537109 C-283.74985654 62.63018789 -282.54330632 52.97699522 -277.20092773 43.25537109 C-275.65795898 40.91943359 -275.65795898 40.91943359 -274.20092773 39.25537109 C-273.54092773 39.25537109 -272.88092773 39.25537109 -272.20092773 39.25537109 C-271.99467773 38.69849609 -271.78842773 38.14162109 -271.57592773 37.56787109 C-267.59892769 30.87928011 -260.06077589 27.49369779 -252.76342773 25.63427734 C-251.2616267 25.31563864 -249.75523811 25.01734271 -248.24389648 24.74755859 C-246.1793883 24.33372203 -246.1793883 24.33372203 -244.36499023 23.32177734 C-235.49252682 18.94960674 -224.19536523 17.52668681 -214.56176758 15.70898438 C-211.79853797 15.17805567 -209.04104646 14.62098267 -206.28295898 14.06396484 C-194.27499029 11.66436098 -182.31243759 9.57726911 -170.14624023 8.15576172 C-169.24518555 8.04941406 -168.34413086 7.94306641 -167.41577148 7.83349609 C-166.62291748 7.74487305 -165.83006348 7.65625 -165.01318359 7.56494141 C-163.18526089 7.43235324 -163.18526089 7.43235324 -162.20092773 6.25537109 C-159.87296886 5.90079793 -157.56400253 5.60753261 -155.22436523 5.35302734 C-154.12044182 5.22997223 -154.12044182 5.22997223 -152.99421692 5.10443115 C-150.52225086 4.8340766 -148.04937574 4.57430395 -145.57592773 4.31787109 C-144.71947662 4.22855316 -143.86302551 4.13923523 -142.98062134 4.04721069 C-121.66660605 1.86256156 -100.3136802 1.03789103 -78.90753174 0.34393311 C-76.32079665 0.25929329 -73.73424187 0.17055566 -71.14770508 0.08007812 C-66.62401838 -0.07769053 -62.10010827 -0.22675588 -57.57592773 -0.36962891 C-56.31159912 -0.40983154 -55.04727051 -0.45003418 -53.74462891 -0.49145508 C-35.80776389 -0.99813284 -17.92651054 -0.75731941 0 0 Z " fill="#020000" transform="translate(499.200927734375,310.74462890625)"/>
<path d="M0 0 C1.41818512 0.22497298 2.836484 0.44922977 4.25488281 0.67285156 C27.17266315 4.29948768 49.74833812 8.59136723 71.7578125 16.1171875 C74.9979718 16.99944774 77.66064028 17.1725505 81 17 C81 17.66 81 18.32 81 19 C82.98 18.505 82.98 18.505 85 18 C85 18.66 85 19.32 85 20 C85.78375 20.103125 86.5675 20.20625 87.375 20.3125 C96.99833114 22.13761453 106.07578641 25.81569736 115.22265625 29.23046875 C119.35945142 30.77237264 123.51761455 32.23769053 127.6875 33.6875 C131.96079739 35.20415006 135.97165175 36.85731414 139.97265625 38.98046875 C142.45351457 40.22806802 144.99112087 41.26414224 147.5625 42.3125 C159.99545976 47.43836938 171.94460951 53.37952766 183.76025391 59.78662109 C185.29171816 60.61628943 186.8253564 61.44195403 188.36083984 62.26416016 C205.82757586 71.62451188 205.82757586 71.62451188 213 78 C213.928125 78.763125 214.85625 79.52625 215.8125 80.3125 C222.94731017 89.07812392 222.91681217 99.21146606 222 110 C221.046875 113.3359375 221.046875 113.3359375 220 116 C219.62875 116.94875 219.2575 117.8975 218.875 118.875 C218.58625 119.57625 218.2975 120.2775 218 121 C217.01 121 216.02 121 215 121 C213.88625 122.5778125 213.88625 122.5778125 212.75 124.1875 C208.09519309 129.90127548 200.92119921 131.48847373 194 133 C190.42730028 133.29385842 187.46869446 132.85801794 184 132 C182.88753906 131.74734375 181.77507812 131.4946875 180.62890625 131.234375 C173.78595348 129.49601455 168.15270524 127.25437572 162.2578125 123.3828125 C160.03630571 122.02223568 157.9594762 121.14995605 155.5 120.3125 C152 119 152 119 150 116 C147.30479713 114.96813467 147.30479713 114.96813467 144.125 114.1875 C138.24049938 112.49782632 133.0566135 110.23056705 127.65625 107.3671875 C125.04623963 105.95795067 125.04623963 105.95795067 122.34375 105.0078125 C120 104 120 104 118.578125 102.48828125 C116.2506499 100.29331092 113.83274202 99.95818551 110.75 99.1875 C105.40517715 97.75190709 100.35994921 96.05573516 95.25 93.9375 C90.46724853 91.96495621 85.71953997 90.18772305 80.73828125 88.78125 C77.05521864 87.73044754 73.40447887 86.58318141 69.75 85.4375 C69.07590088 85.22730225 68.40180176 85.01710449 67.70727539 84.80053711 C64.78675903 83.88726588 61.88117913 82.95797233 58.99609375 81.9375 C55.47764476 80.83655116 51.93807374 80.18303089 48.3125 79.5625 C43.63943556 78.72832821 39.06475914 77.8230182 34.5 76.5 C28.20291067 74.69682754 21.79162257 73.58869192 15.35253906 72.43115234 C12.76035913 71.95608076 10.17309961 71.45869829 7.5859375 70.95703125 C6.65958496 70.777771 5.73323242 70.59851074 4.77880859 70.41381836 C2.97152866 70.06338199 1.16454484 69.71141383 -0.64208984 69.35766602 C-5.75075291 68.37327084 -10.83010592 67.58640002 -16 67 C-16 66.34 -16 65.68 -16 65 C-16.56807373 64.98018066 -17.13614746 64.96036133 -17.72143555 64.93994141 C-20.37713921 64.84276515 -23.03225201 64.73389602 -25.6875 64.625 C-26.58017578 64.5940625 -27.47285156 64.563125 -28.39257812 64.53125 C-33.39843269 64.31747685 -38.24681886 63.85088366 -43.19140625 63.03125 C-50.84640236 61.78867697 -58.51574697 61.29168177 -66.25 60.875 C-67.00366852 60.83330688 -67.75733704 60.79161377 -68.53384399 60.74865723 C-116.50778109 56.04374592 -116.50778109 56.04374592 -162 64 C-164.21124303 64.2935558 -166.42896758 64.53872989 -168.6484375 64.76171875 C-170.04689604 64.90853288 -171.44524808 65.05636409 -172.84350586 65.20507812 C-173.5821286 65.28314697 -174.32075134 65.36121582 -175.08175659 65.44165039 C-190.64058146 67.10965083 -205.68825986 69.73538073 -220.93945312 73.29492188 C-225.50824951 74.34746527 -230.09633024 75.30076887 -234.6875 76.25 C-236.10824024 76.54607322 -237.52882368 76.84290027 -238.94921875 77.140625 C-239.60760742 77.27831299 -240.26599609 77.41600098 -240.94433594 77.55786133 C-243.93628572 78.20137927 -246.9165582 78.89552879 -249.89624023 79.59350586 C-259.24475894 81.39985188 -268.71572791 79.27388732 -276.8125 74.375 C-283.96503163 69.19293326 -288.15971408 61.55732953 -290 53 C-290.83858718 44.19483457 -288.49532689 35.99405241 -283 29 C-280.875 26.625 -280.875 26.625 -279 25 C-278.34 25 -277.68 25 -277 25 C-277 24.34 -277 23.68 -277 23 C-270.97331355 20.04659669 -265.7459118 17.68835835 -259 17 C-258.36449219 16.68160156 -257.72898437 16.36320312 -257.07421875 16.03515625 C-254.90699151 14.95358333 -253.13024672 14.53280451 -250.75 14.125 C-246.48977461 13.32697507 -242.32081039 12.33713717 -238.125 11.25 C-214.30415946 5.2408021 -190.5192896 1.20691118 -166.15795898 -1.73895264 C-164.11343973 -1.98627725 -162.06939273 -2.23721287 -160.02539062 -2.48876953 C-107.49772009 -8.86555719 -52.27192939 -8.53446771 0 0 Z M-289 51 C-288 53 -288 53 -288 53 Z " fill="#010000" transform="translate(537,462)"/>
<path d="M0 0 C31.19767409 -0.34170828 63.13497149 0.23144498 94 5 C95.94269823 5.2857936 97.88539831 5.5715747 99.82814026 5.85707092 C103.28350443 6.36944551 106.73564684 6.90205584 110.1875 7.4375 C112.06852417 7.72717651 112.06852417 7.72717651 113.98754883 8.02270508 C121.71753556 9.27950093 129.15009114 11.02387807 136.68530273 13.11010742 C140.43326932 14.11631927 144.10800281 14.82393415 147.9375 15.4375 C155.5169956 16.75364394 162.67815841 18.91871753 169.96923828 21.33837891 C172.05391961 22.01756698 174.14688973 22.66018054 176.24609375 23.29296875 C182.52267895 25.18829407 188.65990399 27.11058865 194.59375 29.93359375 C197.04191995 31.01857816 199.52892896 31.91665759 202.05297852 32.80761719 C213.57242551 36.90406254 224.41942842 42.37760392 235.38525391 47.75073242 C237.38440237 48.70588113 239.41837573 49.58845803 241.46484375 50.4375 C246.99764428 52.8829367 252.22177221 55.86471781 257.5 58.8125 C258.60214844 59.41642578 259.70429687 60.02035156 260.83984375 60.64257812 C266.78269264 63.95644764 272.13640224 67.21326945 277 72 C277 72.66 277 73.32 277 74 C277.66 74 278.32 74 279 74 C282.76498246 78.4940109 285.73478941 83.03276164 286 89 C286.103125 89.928125 286.20625 90.85625 286.3125 91.8125 C285.58477952 99.2352489 281.37507431 106.86819414 276 112 C269.2175944 116.2995607 261.83843969 117.05480238 254 116 C244.06744632 113.73577806 235.49269914 108.67326694 226.69165039 103.73754883 C215.53110718 97.5185628 203.90131785 92.37031645 192.16015625 87.35546875 C189.54442462 86.23351711 186.95855461 85.06813249 184.375 83.875 C181.26490038 82.48210068 178.4070245 81.43961606 175 81 C175 80.34 175 79.68 175 79 C173.2365625 78.9071875 173.2365625 78.9071875 171.4375 78.8125 C166.58051626 78.26618288 162.25202552 76.84172131 157.65405273 75.2265625 C148.12760686 71.92961826 138.36208733 69.39333272 128.64257812 66.73510742 C126.53412619 66.14858222 124.43673614 65.52233604 122.34375 64.8828125 C118.09306851 63.76055313 113.85286567 63.14657618 109.5 62.5625 C108.58565186 62.43689697 107.67130371 62.31129395 106.72924805 62.18188477 C104.79426785 61.9173887 102.85895598 61.65530908 100.92333984 61.39550781 C98.08909702 61.01205421 95.25744108 60.61296636 92.42578125 60.2109375 C69.00263059 56.94465631 45.70302297 55.63937966 22.0625 55.75 C20.87232269 55.75310181 19.68214539 55.75620361 18.4559021 55.75939941 C-11.05060871 55.8490916 -39.8427686 57.16031864 -69 62 C-70.21445801 62.1949707 -71.42891602 62.38994141 -72.68017578 62.59082031 C-85.0134594 64.57298377 -97.21247849 66.6929895 -109.3125 69.8125 C-119.36485861 72.34704021 -130.5961631 74.79632383 -140.25 69.75 C-146.93030365 65.42116324 -151.14586952 59.36309882 -154 52 C-154.66095745 46.81117514 -154.66021197 41.9806359 -153 37 C-152.34 37 -151.68 37 -151 37 C-150.773125 35.9275 -150.54625 34.855 -150.3125 33.75 C-148.42602653 28.3600758 -145.46208446 26.75206778 -140.46875 24.18359375 C-139.15091558 23.59014508 -137.82771333 23.00850455 -136.5 22.4375 C-135.80237549 22.13521484 -135.10475098 21.83292969 -134.38598633 21.52148438 C-118.46251743 14.84582752 -118.46251743 14.84582752 -112 17 C-111.67 16.34 -111.34 15.68 -111 15 C-109.43837858 14.72237841 -107.87209583 14.46285529 -106.296875 14.27734375 C-103.49798879 13.939383 -100.72111417 13.50912466 -97.9375 13.0625 C-96.95652344 12.90910156 -95.97554688 12.75570312 -94.96484375 12.59765625 C-91.98201843 12.06416693 -91.98201843 12.06416693 -89.13671875 11.015625 C-85.42240689 9.81298355 -81.72732336 9.22605359 -77.875 8.6875 C-76.62722778 8.50791748 -76.62722778 8.50791748 -75.35424805 8.32470703 C-73.40207061 8.04536051 -71.44947756 7.76891024 -69.49658203 7.49462891 C-66.19042297 7.02693736 -62.88616665 6.54768719 -59.58209229 6.06556702 C-56.44715986 5.6097644 -53.3112424 5.16099457 -50.17510986 4.71353149 C-48.6260889 4.49157679 -47.07736883 4.26750969 -45.5289917 4.04110718 C-30.36507007 1.8303629 -15.33362236 0.75999548 0 1 C0 0.67 0 0.34 0 0 Z " fill="#030000" transform="translate(418,591)"/>
</svg>
